<svg xmlns="http://www.w3.org/2000/svg" width="1050" height="500" viewBox="0 0 1050 500"><defs><style>.cls-1{fill:#f4f391;}.cls-2{fill:#f9f28d;}.cls-3{fill:#ddb9b0;}.cls-4{fill:#050708;stroke:#080b11;}.cls-12,.cls-13,.cls-4,.cls-6{stroke-miterlimit:10;}.cls-5{fill:#900d67;}.cls-6{fill:#00040b;}.cls-13,.cls-6{stroke:#000;}.cls-13,.cls-7{fill:#fff;}.cls-8{fill:#879fd0;}.cls-9{fill:#060404;}.cls-10{fill:#fdfdf8;}.cls-11{fill:#a21f23;}.cls-12{fill:none;stroke:#59342f;}.cls-14{fill:#cee9de;}</style></defs><title>betina</title><g id="Layer_2" data-name="Layer 2"><path class="cls-1" d="M133.12,114.67s10.67-9.34,24.69-27.35c0,0,33.36,24,61.38,22.68,0,0,8.67,22.69-11.34,46.71,0,0,18-.67,28.69-42,0,0,3.33-57.38-34-68.72,0,0-25.35-18-51.38,5.34,0,0-33.36,12-28.69,43.37,0,0-11.34,42.7,22,64.72Z"/><path class="cls-2" d="M155.14,46s-20.69-14.68,7.34-24.69c0,0,7.34-7.34,32.69,0,0,0,18.68,6.67,7.34,24.69Z"/><path class="cls-3" d="M133.12,114,155.8,88l64.72,22.69,2,8.67s9.34-8.67,10.67,3.34c0,0,2,11.34-8,7.34,0,0-2.67,29.36-47.38,38.7,0,0-36-2.67-47.37-36.7,0,0-10.68.67-9.34-12.68,0,0,4-8.67,12,0Z"/><polygon class="cls-3" points="164.48 159.38 166.48 182.73 189.83 182.73 189.83 162.05 164.48 159.38"/><path class="cls-3" d="M162.48,183.4s-29.36-5.34-26.69,37.36c0,0-14.68,84.74-10,90.08,0,0-10,3.33-9.34,15.34,0,0,0,14,14,8v-8l5.34,9.35s4-2-1.34-16l-1.33-10,18-98.08Z"/><polygon class="cls-3" points="162.14 183.06 176.82 175.72 191.5 181.73 194.84 204.42 178.16 229.1 157.47 201.08 162.14 183.06"/><path class="cls-4" d="M161.81,187.75l-4.67,7.2s19.35,4,20,9.86c0,0,9.34-9.06,17.34-8.53l-2.67-8.53,8.68,8.53s5.34,5.87,0,10.93v7.73c-.92-.78,8.47,11.63,8,13.6,0,0,2.67,16,11.35,44.26,0,0-36,14.4-84.74,0l10-43.46a50.6,50.6,0,0,1,8-14.4l.67-9.06L150.47,199Z"/><path class="cls-5" d="M147.29,293.31l3.46,162.22L127,467.93s-11.11,8.09,13.85,11.66l26.93-5.74,5.43-179.75Z"/><path class="cls-5" d="M170.85,295.78l8.79,175.32a2.19,2.19,0,0,0,1.68,2.21l37.35,4.46a1.44,1.44,0,0,0,.88-.17c2.69-1.42,16.55-9.18-.14-10.12a1.59,1.59,0,0,1-.56-.14l-18.26-8.74a2.4,2.4,0,0,1-1.21-2.13l-4.8-160.93a2.14,2.14,0,0,0-1.85-2.28h-20A2.19,2.19,0,0,0,170.85,295.78Z"/><path class="cls-6" d="M128.61,156.15l10.82-9s1.87-.75,2.24,2.23l16.42,54.85s1.12,4.86-2.61,3.36l-11.94-1.12s-1.87-.37-2.24-3.73l-12.69-44S127.49,156.9,128.61,156.15Z"/><path class="cls-3" d="M190.83,182.4s18.69-4.67,22.69,4.67c0,0-4,44.7-19.35,49.37l-61.39-48s-8.67-14,6-9.34l5.34,3.34-1.34-6.67s3.34-4.67,5.34,6.67v4.91l41.37,33.12,10.67-18Z"/><polygon class="cls-3" points="153 267.16 155.55 283.22 145.85 293.93 195.38 293.93 185.17 283.89 189.25 267.16 153 267.16"/><path class="cls-7" d="M211.44,119.69s-2.47-14.83-18.53-12.36c0,0-9.89,1.24-13.59,12.36A28.71,28.71,0,0,0,211.44,119.69Z"/><ellipse class="cls-8" cx="195.38" cy="116.32" rx="7.41" ry="6.8"/><circle class="cls-9" cx="195.38" cy="115.7" r="2.47"/><path class="cls-10" d="M190.44,113.23c0-1.37,2.76-2.47,6.17-2.47"/><path class="cls-10" d="M199.68,119.92c.18,1.34-1,2.61-2.73,2.83"/><path class="cls-7" d="M139.13,119.81s2.34-14.84,18.42-12.51c0,0,9.9,1.15,13.7,12.24A28.72,28.72,0,0,1,139.13,119.81Z"/><ellipse class="cls-8" cx="155.15" cy="115.35" rx="7.41" ry="6.8" transform="translate(-0.99 1.34) rotate(-0.49)"/><circle class="cls-9" cx="155.16" cy="115.97" r="2.47"/><path class="cls-10" d="M150.24,118.48c0,1.37,2.78,2.45,6.2,2.42"/><path class="cls-10" d="M159.42,111.71c.17-1.34-1.06-2.6-2.75-2.8"/><path class="cls-11" d="M151.21,140.67h-.67s26.77,28.1,46.18,0C196.72,140.67,181.32,156.73,151.21,140.67Z"/><path class="cls-12" d="M168.27,110.21s-12-12.71-25.43-2"/><path class="cls-12" d="M209.77,110.21s-12.05-12.71-25.43-2"/><path class="cls-7" d="M200.38,454.76s-2.23-.38-3.34,4.08c0,0-8.17,2.23-14.12-.74,0,0-4.83-1.49-4.83,2.6v16s0,2.6,3.35,2.6h49.77s5.21-2.23,0-12.26Z"/><path class="cls-7" d="M197,458.84s-8.92,11.52-18.95,1.86c0,0,.37-4.46,4.09-2.6C182.18,458.1,190,461.44,197,458.84Z"/><ellipse class="cls-13" cx="219.37" cy="464.24" rx="2.81" ry="0.47" transform="translate(-293.68 484.9) rotate(-67.01)"/><ellipse class="cls-13" cx="215.65" cy="462.75" rx="2.81" ry="0.47" transform="translate(-294.57 480.57) rotate(-67.01)"/><ellipse class="cls-13" cx="211.94" cy="461.27" rx="2.81" ry="0.47" transform="translate(-295.47 476.25) rotate(-67.01)"/><ellipse class="cls-13" cx="208.22" cy="459.78" rx="2.81" ry="0.47" transform="translate(-296.36 471.92) rotate(-67.01)"/><ellipse class="cls-13" cx="204.14" cy="458.67" rx="2.81" ry="0.47" transform="translate(-297.83 467.48) rotate(-67.01)"/><rect class="cls-7" x="178.09" y="475.93" width="54.61" height="3.34" rx="1.57" ry="1.57" transform="translate(410.79 955.2) rotate(180)"/><path class="cls-7" d="M146.52,455.42s2.23-.37,3.35,4.09c0,0,8.17,2.23,14.11-.74,0,0,4.83-1.49,4.83,2.6v16s0,2.6-3.34,2.6H115.69s-5.2-2.23,0-12.26Z"/><path class="cls-7" d="M149.87,459.51s8.91,11.52,18.94,1.86c0,0-.37-4.46-4.08-2.6C164.73,458.77,156.93,462.11,149.87,459.51Z"/><ellipse class="cls-13" cx="127.54" cy="464.91" rx="0.47" ry="2.81" transform="translate(-171.43 86.72) rotate(-22.99)"/><ellipse class="cls-13" cx="131.25" cy="463.42" rx="0.47" ry="2.81" transform="translate(-170.55 88.05) rotate(-22.99)"/><ellipse class="cls-13" cx="134.97" cy="461.94" rx="0.47" ry="2.81" transform="translate(-169.68 89.39) rotate(-22.99)"/><ellipse class="cls-13" cx="138.68" cy="460.45" rx="0.47" ry="2.81" transform="translate(-168.8 90.72) rotate(-22.99)"/><ellipse class="cls-13" cx="142.77" cy="459.34" rx="0.47" ry="2.81" transform="matrix(0.92, -0.39, 0.39, 0.92, -168.04, 92.23)"/><path class="cls-1" d="M484.12,114.67s10.67-9.34,24.69-27.35c0,0,33.36,24,61.38,22.68,0,0,8.67,22.69-11.34,46.71,0,0,18-.67,28.69-42,0,0,3.33-57.38-34-68.72,0,0-25.35-18-51.38,5.34,0,0-33.36,12-28.69,43.37,0,0-11.34,42.7,22,64.72Z"/><path class="cls-2" d="M506.14,46s-20.69-14.68,7.34-24.69c0,0,7.34-7.34,32.69,0,0,0,18.68,6.67,7.34,24.69Z"/><path class="cls-3" d="M484.12,114,506.8,88l64.72,22.69,2,8.67s9.34-8.67,10.67,3.34c0,0,2,11.34-8,7.34,0,0-2.67,29.36-47.38,38.7,0,0-36-2.67-47.37-36.7,0,0-10.68.67-9.34-12.68,0,0,4-8.67,12,0Z"/><polygon class="cls-3" points="515.48 159.38 517.48 182.73 540.83 182.73 540.83 162.05 515.48 159.38"/><path class="cls-3" d="M513.48,183.4s-29.36-5.34-26.69,37.36c0,0-14.68,84.74-10,90.08,0,0-10,3.33-9.34,15.34,0,0,0,14,14,8v-8l5.34,9.35s4-2-1.34-16l-1.33-10,18-98.08Z"/><polygon class="cls-3" points="513.14 183.06 527.82 175.72 542.5 181.73 545.84 204.42 529.16 229.1 508.47 201.08 513.14 183.06"/><path class="cls-4" d="M512.81,187.75l-4.67,7.2s19.35,4,20,9.86c0,0,9.34-9.06,17.34-8.53l-2.67-8.53,8.68,8.53s5.34,5.87,0,10.93v7.73c-.92-.78,8.47,11.63,8,13.6,0,0,2.67,16,11.35,44.26,0,0-36,14.4-84.74,0l10-43.46a50.6,50.6,0,0,1,8-14.4l.67-9.06L501.47,199Z"/><path class="cls-5" d="M498.29,293.31l3.46,162.22L478,467.93s-11.11,8.09,13.85,11.66l26.93-5.74,5.43-179.75Z"/><path class="cls-5" d="M521.85,295.78l8.79,175.32a2.19,2.19,0,0,0,1.68,2.21l37.35,4.46a1.44,1.44,0,0,0,.88-.17c2.69-1.42,16.55-9.18-.14-10.12a1.59,1.59,0,0,1-.56-.14l-18.26-8.74a2.4,2.4,0,0,1-1.21-2.13l-4.8-160.93a2.14,2.14,0,0,0-1.85-2.28h-20A2.19,2.19,0,0,0,521.85,295.78Z"/><path class="cls-6" d="M479.61,156.15l10.82-9s1.87-.75,2.24,2.23l16.42,54.85s1.12,4.86-2.61,3.36l-11.94-1.12s-1.87-.37-2.24-3.73l-12.69-44S478.49,156.9,479.61,156.15Z"/><path class="cls-3" d="M541.83,182.4s18.69-4.67,22.69,4.67c0,0-4,44.7-19.35,49.37l-61.39-48s-8.67-14,6-9.34l5.34,3.34-1.34-6.67s3.34-4.67,5.34,6.67v4.91l41.37,33.12,10.67-18Z"/><polygon class="cls-3" points="504 267.16 506.55 283.22 496.85 293.93 546.38 293.93 536.17 283.89 540.25 267.16 504 267.16"/><path class="cls-7" d="M562.44,119.69s-2.47-14.83-18.53-12.36c0,0-9.89,1.24-13.59,12.36A28.71,28.71,0,0,0,562.44,119.69Z"/><ellipse class="cls-8" cx="546.38" cy="116.32" rx="7.41" ry="6.8"/><circle class="cls-9" cx="546.38" cy="115.7" r="2.47"/><path class="cls-10" d="M541.44,113.23c0-1.37,2.76-2.47,6.17-2.47"/><path class="cls-10" d="M550.68,119.92c.18,1.34-1,2.61-2.73,2.83"/><path class="cls-7" d="M490.13,119.81s2.34-14.84,18.42-12.51c0,0,9.9,1.15,13.7,12.24A28.72,28.72,0,0,1,490.13,119.81Z"/><ellipse class="cls-8" cx="506.15" cy="115.35" rx="7.41" ry="6.8" transform="translate(-0.97 4.35) rotate(-0.49)"/><circle class="cls-9" cx="506.16" cy="115.97" r="2.47"/><path class="cls-10" d="M501.24,118.48c0,1.37,2.78,2.45,6.2,2.42"/><path class="cls-10" d="M510.42,111.71c.17-1.34-1.06-2.6-2.75-2.8"/><path class="cls-7" d="M551.38,454.76s-2.23-.38-3.34,4.08c0,0-8.17,2.23-14.12-.74,0,0-4.83-1.49-4.83,2.6v16s0,2.6,3.35,2.6h49.77s5.21-2.23,0-12.26Z"/><path class="cls-7" d="M548,458.84s-8.92,11.52-18.95,1.86c0,0,.37-4.46,4.09-2.6C533.18,458.1,541,461.44,548,458.84Z"/><ellipse class="cls-13" cx="570.37" cy="464.24" rx="2.81" ry="0.47" transform="translate(-79.75 808.03) rotate(-67.01)"/><ellipse class="cls-13" cx="566.65" cy="462.75" rx="2.81" ry="0.47" transform="translate(-80.64 803.7) rotate(-67.01)"/><ellipse class="cls-13" cx="562.94" cy="461.27" rx="2.81" ry="0.47" transform="translate(-81.54 799.38) rotate(-67.01)"/><ellipse class="cls-13" cx="559.22" cy="459.78" rx="2.81" ry="0.47" transform="translate(-82.43 795.05) rotate(-67.01)"/><ellipse class="cls-13" cx="555.14" cy="458.67" rx="2.81" ry="0.47" transform="translate(-83.9 790.61) rotate(-67.01)"/><path class="cls-7" d="M497.52,455.42s2.23-.37,3.35,4.09c0,0,8.17,2.23,14.11-.74,0,0,4.83-1.49,4.83,2.6v16s0,2.6-3.34,2.6H466.69s-5.2-2.23,0-12.26Z"/><path class="cls-7" d="M500.87,459.51s8.91,11.52,18.94,1.86c0,0-.37-4.46-4.08-2.6C515.73,458.77,507.93,462.11,500.87,459.51Z"/><ellipse class="cls-13" cx="478.54" cy="464.91" rx="0.47" ry="2.81" transform="translate(-143.56 223.79) rotate(-22.99)"/><ellipse class="cls-13" cx="482.25" cy="463.42" rx="0.47" ry="2.81" transform="translate(-142.68 225.12) rotate(-22.99)"/><ellipse class="cls-13" cx="485.97" cy="461.94" rx="0.47" ry="2.81" transform="translate(-141.81 226.46) rotate(-22.99)"/><ellipse class="cls-13" cx="489.68" cy="460.45" rx="0.47" ry="2.81" transform="translate(-140.93 227.79) rotate(-22.99)"/><ellipse class="cls-13" cx="493.77" cy="459.34" rx="0.47" ry="2.81" transform="matrix(0.92, -0.39, 0.39, 0.92, -140.17, 229.3)"/><path class="cls-12" d="M519.53,110.28c.62-2.12-7.68-6.4-18.56-9.56"/><path class="cls-12" d="M530,110.28c-.62-2.12,7.69-6.4,18.57-9.56"/><path class="cls-11" d="M504,151h42S524,139,504,151Z"/><path class="cls-1" d="M834.12,114.67s10.67-9.34,24.69-27.35c0,0,33.36,24,61.38,22.68,0,0,8.67,22.69-11.34,46.71,0,0,18-.67,28.69-42,0,0,3.33-57.38-34-68.72,0,0-25.35-18-51.38,5.34,0,0-33.36,12-28.69,43.37,0,0-11.34,42.7,22,64.72Z"/><path class="cls-2" d="M856.14,46s-20.69-14.68,7.34-24.69c0,0,7.34-7.34,32.69,0,0,0,18.68,6.67,7.34,24.69Z"/><path class="cls-3" d="M834.12,114,856.8,88l64.72,22.69,2,8.67s9.34-8.67,10.67,3.34c0,0,2,11.34-8,7.34,0,0-2.67,29.36-47.38,38.7,0,0-36-2.67-47.37-36.7,0,0-10.68.67-9.34-12.68,0,0,4-8.67,12,0Z"/><polygon class="cls-3" points="865.48 159.38 867.48 182.73 890.83 182.73 890.83 162.05 865.48 159.38"/><path class="cls-3" d="M863.48,183.4s-29.36-5.34-26.69,37.36c0,0-14.68,84.74-10,90.08,0,0-10,3.33-9.34,15.34,0,0,0,14,14,8v-8l5.34,9.35s4-2-1.34-16l-1.33-10,18-98.08Z"/><polygon class="cls-3" points="863.14 183.06 877.82 175.72 892.5 181.73 895.84 204.42 879.16 229.1 858.47 201.08 863.14 183.06"/><path class="cls-4" d="M862.81,187.75l-4.67,7.2s19.35,4,20,9.86c0,0,9.34-9.06,17.34-8.53l-2.67-8.53,8.68,8.53s5.34,5.87,0,10.93v7.73c-.92-.78,8.47,11.63,8,13.6,0,0,2.67,16,11.35,44.26,0,0-36,14.4-84.74,0l10-43.46a50.6,50.6,0,0,1,8-14.4l.67-9.06L851.47,199Z"/><path class="cls-5" d="M848.29,293.31l3.46,162.22L828,467.93s-11.11,8.09,13.85,11.66l26.93-5.74,5.43-179.75Z"/><path class="cls-5" d="M871.85,295.78l8.79,175.32a2.19,2.19,0,0,0,1.68,2.21l37.35,4.46a1.44,1.44,0,0,0,.88-.17c2.69-1.42,16.55-9.18-.14-10.12a1.59,1.59,0,0,1-.56-.14l-18.26-8.74a2.4,2.4,0,0,1-1.21-2.13l-4.8-160.93a2.14,2.14,0,0,0-1.85-2.28h-20A2.19,2.19,0,0,0,871.85,295.78Z"/><path class="cls-6" d="M829.61,156.15l10.82-9s1.87-.75,2.24,2.23l16.42,54.85s1.12,4.86-2.61,3.36l-11.94-1.12s-1.87-.37-2.24-3.73l-12.69-44S828.49,156.9,829.61,156.15Z"/><path class="cls-3" d="M891.83,182.4s18.69-4.67,22.69,4.67c0,0-4,44.7-19.35,49.37l-61.39-48s-8.67-14,6-9.34l5.34,3.34-1.34-6.67s3.34-4.67,5.34,6.67v4.91l41.37,33.12,10.67-18Z"/><polygon class="cls-3" points="854 267.16 856.55 283.22 846.85 293.93 896.38 293.93 886.17 283.89 890.25 267.16 854 267.16"/><path class="cls-7" d="M912.44,119.69s-2.47-14.83-18.53-12.36c0,0-9.89,1.24-13.59,12.36A28.71,28.71,0,0,0,912.44,119.69Z"/><ellipse class="cls-8" cx="896.38" cy="116.32" rx="7.41" ry="6.8"/><circle class="cls-9" cx="896.38" cy="115.7" r="2.47"/><path class="cls-10" d="M891.44,113.23c0-1.37,2.76-2.47,6.17-2.47"/><path class="cls-10" d="M900.68,119.92c.18,1.34-1,2.61-2.73,2.83"/><path class="cls-7" d="M840.13,119.81s2.34-14.84,18.42-12.51c0,0,9.9,1.15,13.7,12.24A28.72,28.72,0,0,1,840.13,119.81Z"/><ellipse class="cls-8" cx="856.15" cy="115.35" rx="7.41" ry="6.8" transform="translate(-0.96 7.36) rotate(-0.49)"/><circle class="cls-9" cx="856.16" cy="115.97" r="2.47"/><path class="cls-10" d="M851.24,118.48c0,1.37,2.78,2.45,6.2,2.42"/><path class="cls-10" d="M860.42,111.71c.17-1.34-1.06-2.6-2.75-2.8"/><path class="cls-7" d="M901.38,454.76s-2.23-.38-3.34,4.08c0,0-8.17,2.23-14.12-.74,0,0-4.83-1.49-4.83,2.6v16s0,2.6,3.35,2.6h49.77s5.21-2.23,0-12.26Z"/><path class="cls-7" d="M898,458.84s-8.92,11.52-18.95,1.86c0,0,.37-4.46,4.09-2.6C883.18,458.1,891,461.44,898,458.84Z"/><ellipse class="cls-13" cx="920.37" cy="464.24" rx="2.81" ry="0.47" transform="translate(133.57 1130.24) rotate(-67.01)"/><ellipse class="cls-13" cx="916.65" cy="462.75" rx="2.81" ry="0.47" transform="translate(132.68 1125.91) rotate(-67.01)"/><ellipse class="cls-13" cx="912.94" cy="461.27" rx="2.81" ry="0.47" transform="translate(131.78 1121.59) rotate(-67.01)"/><ellipse class="cls-13" cx="909.22" cy="459.78" rx="2.81" ry="0.47" transform="translate(130.89 1117.26) rotate(-67.01)"/><ellipse class="cls-13" cx="905.14" cy="458.67" rx="2.81" ry="0.47" transform="translate(129.42 1112.82) rotate(-67.01)"/><path class="cls-7" d="M847.52,455.42s2.23-.37,3.35,4.09c0,0,8.17,2.23,14.11-.74,0,0,4.83-1.49,4.83,2.6v16s0,2.6-3.34,2.6H816.69s-5.2-2.23,0-12.26Z"/><path class="cls-7" d="M850.87,459.51s8.91,11.52,18.94,1.86c0,0-.37-4.46-4.08-2.6C865.73,458.77,857.93,462.11,850.87,459.51Z"/><ellipse class="cls-13" cx="828.54" cy="464.91" rx="0.47" ry="2.81" transform="translate(-115.77 360.47) rotate(-22.99)"/><ellipse class="cls-13" cx="832.25" cy="463.42" rx="0.47" ry="2.81" transform="translate(-114.89 361.8) rotate(-22.99)"/><ellipse class="cls-13" cx="835.97" cy="461.94" rx="0.47" ry="2.81" transform="translate(-114.01 363.14) rotate(-22.99)"/><ellipse class="cls-13" cx="839.68" cy="460.45" rx="0.47" ry="2.81" transform="translate(-113.14 364.47) rotate(-22.99)"/><ellipse class="cls-13" cx="843.77" cy="459.34" rx="0.47" ry="2.81" transform="translate(-112.38 365.98) rotate(-22.99)"/><path class="cls-12" d="M869.53,110.28c.62-2.12-7.68-6.4-18.56-9.56"/><path class="cls-12" d="M880,110.28c-.62-2.12,7.69-6.4,18.57-9.56"/><path class="cls-11" d="M866,149.52h23S877,129.71,866,149.52Z"/><path class="cls-14" d="M840.38,121s-2.33,4,0,5.71C840.38,126.71,843.18,126.59,840.38,121Z"/><path class="cls-14" d="M843.38,125s-2.33,4,0,5.71C843.38,130.71,846.18,130.59,843.38,125Z"/><path class="cls-14" d="M908.38,125s-2.33,4,0,5.71C908.38,130.71,911.18,130.59,908.38,125Z"/></g></svg>
