<svg id="dreng" xmlns="http://www.w3.org/2000/svg" width="1920" height="1080" viewBox="0 0 1920 1080"><defs><style>.cls-1{fill:#dabc83;}.cls-2{fill:#7a3b1e;}.cls-3{fill:#006ec6;}.cls-4{fill:#0064bc;}.cls-5{fill:#1d1e30;}.cls-10,.cls-11,.cls-5,.cls-6,.cls-7,.cls-8{stroke:#000;stroke-miterlimit:10;}.cls-6{fill:#00040b;}.cls-7{fill:#000d18;}.cls-8{fill:#000104;}.cls-11,.cls-9{fill:#f7f5f7;}.cls-10{fill:none;}</style></defs><title>dreng2</title><path class="cls-1" d="M877.5,251.5s6,36-36,74v26s-27,42-50,0v-13s-41-1-63-56l-5-108h119l15-5,2,44s15-25,33,0C892.5,213.5,911.5,240.5,877.5,251.5Z"/><path class="cls-2" d="M701.5,70.5s9,22,21,19c0,0,2-17,9-16,0,0,4,14,16,16h99s21-4,29,23c0,0,20,4,16,16l1,85s-17-19-33,0l-1-41s-5,1-16,4l-123-2s-51-7-35-74A95.57,95.57,0,0,1,701.5,70.5Z"/><path class="cls-3" d="M790.5,346.5h-27l-3,2s-161-25-291-11v41s174-9,256,11l26,224h156l-9-167s-4-45-41-64c0,0-13-33,14-35l-27,2S809.5,394.5,790.5,346.5Z"/><path class="cls-4" d="M869.5,347.5s63,1,73,105c0,0,6,57-73,92,0,0-63,24-128-10,0,0-67-40-81-57l20-35s71,60,104,61c0,0,93,15,103-26,0,0,11-24,10-33,0,0-1-42-42-62C855.5,382.5,844.5,351.5,869.5,347.5Z"/><path class="cls-5" d="M604.5,341.5l6-3s6-1,7,9l43,147s2,6-8,10c0,0,2-9,1-12s0,3,0,3Z"/><path class="cls-6" d="M574.5,366.5l29-24s5-2,6,6l44,147s3,13-7,9l-32-3s-5-1-6-10l-34-118S571.5,368.5,574.5,366.5Z"/><path class="cls-1" d="M675.5,463.5s20-44-19-63c0,0-44-15-57,8,0,0-1,12,15,16,0,0-12,67,47,53Z"/><path class="cls-1" d="M469.5,337.5s-32-35-55-11c0,0-21,28,2,54,0,0,23,42,53-2C469.5,378.5,483.5,355.5,469.5,337.5Z"/><path class="cls-7" d="M719.5,614.5h-104s-28,8-29,35l-111,243s8,24,50,31l114-244h45l4-40Z"/><path class="cls-8" d="M751.5,613.5h156s17,50-36,66h-123l-42,243s-18,12-58,0l40-273S685.5,608.5,751.5,613.5Z"/><path class="cls-4" d="M649.5,920.5s6-1,9,11c0,0,22,6,38-2,0,0,13-4,13,7v43s0,7-9,7h-134s-14-6,0-33Z"/><path class="cls-4" d="M476.5,906.5s4,37,44,28l-21,40s-6,5-23-5l-108-56s-1-25,20-27l82,6S478.5,891.5,476.5,906.5Z"/><path class="cls-9" d="M658.5,931.5s24,31,51,5c0,0-1-12-11-7C698.5,929.5,677.5,938.5,658.5,931.5Z"/><ellipse class="cls-10" cx="598.39" cy="946.03" rx="1.26" ry="7.56" transform="translate(-321.92 308.8) rotate(-22.99)"/><ellipse class="cls-10" cx="415.39" cy="893.03" rx="1.26" ry="7.56"/><ellipse class="cls-10" cx="427.39" cy="894.03" rx="1.26" ry="7.56"/><ellipse class="cls-10" cx="437.39" cy="895.03" rx="1.26" ry="7.56"/><ellipse class="cls-10" cx="449.39" cy="896.03" rx="1.26" ry="7.56"/><ellipse class="cls-10" cx="459.39" cy="897.03" rx="1.26" ry="7.56"/><ellipse class="cls-10" cx="608.39" cy="942.03" rx="1.26" ry="7.56" transform="translate(-319.57 312.38) rotate(-22.99)"/><ellipse class="cls-10" cx="618.39" cy="938.03" rx="1.26" ry="7.56" transform="translate(-317.21 315.97) rotate(-22.99)"/><ellipse class="cls-10" cx="628.39" cy="934.03" rx="1.26" ry="7.56" transform="translate(-314.86 319.56) rotate(-22.99)"/><ellipse class="cls-10" cx="639.39" cy="931.03" rx="1.26" ry="7.56" transform="translate(-312.81 323.62) rotate(-22.99)"/><rect class="cls-9" x="562.5" y="977.5" width="147" height="9" rx="4.5" ry="4.5"/><rect class="cls-11" x="361.81" y="937.2" width="141.24" height="9" rx="4.5" ry="4.5" transform="translate(471.45 -93.81) rotate(26.82)"/><path class="cls-9" d="M476.5,906.5s24,21,36,14c0,0,12,6,8,14C520.5,934.5,483.5,946.5,476.5,906.5Z"/></svg>
