<svg xmlns="http://www.w3.org/2000/svg" width="350" height="500" viewBox="0 0 350 500"><defs><style>.cls-1,.cls-16,.cls-8{fill:#fff;}.cls-1,.cls-16,.cls-3{stroke:#000;}.cls-1,.cls-13,.cls-16,.cls-3,.cls-4{stroke-miterlimit:10;}.cls-1{stroke-width:10px;}.cls-2{fill:#3f3a3b;}.cls-3,.cls-4{fill:#070205;}.cls-4{stroke:#636864;stroke-width:5px;}.cls-5{fill:#f4f391;}.cls-6{fill:#f9f28d;}.cls-7{fill:#ddb9b0;}.cls-9{fill:#879fd0;}.cls-10{fill:#060404;}.cls-11{fill:#fdfdf8;}.cls-12{fill:#a21f23;}.cls-13{fill:none;stroke:#59342f;}.cls-14{fill:#dd91cb;}.cls-15{fill:#040402;}</style></defs><title>mobil_nogen</title><g id="Layer_3" data-name="Layer 3"><rect class="cls-1" x="71.5" y="40.5" width="212" height="413" rx="12" ry="12"/></g><g id="Layer_5" data-name="Layer 5"><rect class="cls-2" x="76" y="378" width="203" height="37.5"/></g><g id="Layer_4" data-name="Layer 4"><rect class="cls-3" x="71.5" y="407.5" width="212" height="46"/><circle class="cls-4" cx="173" cy="430" r="11.5"/></g><g id="Layer_2" data-name="Layer 2"><path class="cls-5" d="M139,127.35s8.32-7.28,19.24-21.32c0,0,26,18.72,47.84,17.68,0,0,6.76,17.68-8.84,36.4,0,0,14-.52,22.37-32.76,0,0,2.6-44.72-26.53-53.57,0,0-19.76-14-40,4.16,0,0-26,9.37-22.36,33.81,0,0-8.85,33.28,17.16,50.44Z"/><path class="cls-6" d="M156.11,73.78S140,62.34,161.83,54.54c0,0,5.72-5.72,25.48,0,0,0,14.56,5.2,5.72,19.24Z"/><path class="cls-7" d="M139,126.83l17.68-20.28,50.44,17.68,1.56,6.76s7.28-6.76,8.32,2.6c0,0,1.56,8.84-6.24,5.72,0,0-2.08,22.88-36.92,30.16,0,0-28.08-2.08-36.92-28.6,0,0-8.32.52-7.28-9.88,0,0,3.12-6.76,9.36,0Z"/><polygon class="cls-7" points="163.39 162.19 164.95 180.4 183.15 180.4 183.15 164.27 163.39 162.19"/><path class="cls-8" d="M200,131.26s-1.92-11.56-14.44-9.63a13.79,13.79,0,0,0-10.6,9.63A22.4,22.4,0,0,0,200,131.26Z"/><ellipse class="cls-9" cx="187.47" cy="128.63" rx="5.78" ry="5.3"/><circle class="cls-10" cx="187.47" cy="128.15" r="1.93"/><path class="cls-11" d="M183.62,126.22c0-1.06,2.16-1.92,4.82-1.92"/><path class="cls-11" d="M190.83,131.44a2.2,2.2,0,0,1-2.13,2.21"/><path class="cls-8" d="M143.63,131.36s1.83-11.58,14.36-9.76a13.79,13.79,0,0,1,10.68,9.54A22.38,22.38,0,0,1,143.63,131.36Z"/><ellipse class="cls-9" cx="156.12" cy="127.88" rx="5.78" ry="5.3" transform="translate(-1.09 1.35) rotate(-0.49)"/><circle class="cls-10" cx="156.12" cy="128.36" r="1.93"/><path class="cls-11" d="M152.29,130.32c0,1.06,2.17,1.91,4.83,1.88"/><path class="cls-11" d="M159.45,125a2.18,2.18,0,0,0-2.15-2.18"/><path class="cls-12" d="M153.05,147.61h-.53s20.87,21.91,36,0C188.52,147.61,176.52,160.13,153.05,147.61Z"/><path class="cls-13" d="M166.35,123.87S157,114,146.53,122.31"/><path class="cls-13" d="M198.69,123.87s-9.39-9.91-19.82-1.56"/><path class="cls-7" d="M162.07,177.4s-13.9,0-13,1.86c0,0-9.27,2.78-7.42,20.38,0,0-9.62,43.69-9.68,64.87,0,3.92.42,7.39-2.61,11.31s-9,17.39,3,13.69c0,0,5.56-1.86,4.63-4.64v-7.41s1.86,13.9,5.56,8.34c0,0-1.85-9.26-4.63-13,0,0,8.34-38.91,13.9-74.12l2.78,28.72s-5.56,19.46-6.49,26.87l6.49,73.19a303.39,303.39,0,0,0,2.77,58.37,4.88,4.88,0,0,1-3.7,4.63s-21.31,1.85-21.31,4.63c0,0-12,8.34,17.6,5.56,0,0,23.16,2.78,15.75-8.34,0,0,9.27-54.66,1.86-61.14l3.7-54.66L175,331.2s-4.63,1.85,1.85,58.37c0,0-6.48,18.52,12,12,0,0,39.84,5.56,21.31-8.34l-21.31-3.7s-2.77-.93-1.85-5.56c0,0,5.56-22.24,2.78-52.81l6.49-78.75-7.42-25,2.78-27.79,13.9,73.19-3.7,17.6s1.85,7.41,4.63-3.7c0,0,12,20.38,12-3.71,0,0-1.85-10.19-6.48-12,0,0,0-40.77-8.34-70.42,0,0,1.85-18.52-11.12-23.16Z"/><path class="cls-14" d="M149.56,248.28H195s4.63,4.63-1.86,41.69l-2.78,41.69.93,60.22H176.43s-5.56-62.07-.93-61.15l-3.7-51.88-3.71,51.88s6.48,7.42-1.85,61.15H154.19l-.92-61.15L151.41,289S147.71,258.47,149.56,248.28Z"/><rect class="cls-15" x="136.59" y="192.69" width="73.19" height="17.6"/><path class="cls-8" d="M152.05,384.48s1.68-.28,2.52,3.07c0,0,6.16,1.68,10.63-.56,0,0,3.64-1.12,3.64,2v12s0,2-2.52,2h-37.5s-3.91-1.68,0-9.24Z"/><path class="cls-8" d="M156.42,387.55s6.72,8.68,14.28,1.4c0,0-.28-3.36-3.08-2C167.62,387,161.74,389.51,156.42,387.55Z"/><ellipse class="cls-16" cx="139.6" cy="391.62" rx="0.35" ry="2.12" transform="translate(-141.85 85.61) rotate(-22.99)"/><ellipse class="cls-16" cx="142.4" cy="390.5" rx="0.35" ry="2.12" transform="translate(-141.19 86.62) rotate(-22.99)"/><ellipse class="cls-16" cx="145.2" cy="389.38" rx="0.35" ry="2.12" transform="translate(-140.53 87.62) rotate(-22.99)"/><ellipse class="cls-16" cx="148" cy="388.26" rx="0.35" ry="2.12" transform="translate(-139.87 88.62) rotate(-22.99)"/><ellipse class="cls-16" cx="151.07" cy="387.42" rx="0.35" ry="2.12" transform="translate(-139.3 89.76) rotate(-22.99)"/><path class="cls-8" d="M191.12,384.48s-1.68-.28-2.52,3.07c0,0-6.15,1.68-10.63-.56,0,0-3.64-1.12-3.64,2v12s0,2,2.52,2h37.5s3.92-1.68,0-9.24Z"/><path class="cls-8" d="M188.6,387.55s-6.71,8.68-14.27,1.4c0,0,.28-3.36,3.08-2C177.41,387,183.29,389.51,188.6,387.55Z"/><ellipse class="cls-16" cx="205.43" cy="391.62" rx="2.12" ry="0.35" transform="translate(-235.32 427.8) rotate(-67.01)"/><ellipse class="cls-16" cx="202.63" cy="390.5" rx="2.12" ry="0.35" transform="translate(-235.99 424.54) rotate(-67.01)"/><ellipse class="cls-16" cx="199.83" cy="389.38" rx="2.12" ry="0.35" transform="translate(-236.67 421.29) rotate(-67.01)"/><ellipse class="cls-16" cx="197.03" cy="388.26" rx="2.12" ry="0.35" transform="translate(-237.34 418.03) rotate(-67.01)"/><ellipse class="cls-16" cx="193.95" cy="387.42" rx="2.12" ry="0.35" transform="translate(-238.45 414.68) rotate(-67.01)"/></g></svg>
