<svg xmlns="http://www.w3.org/2000/svg" width="350" height="500" viewBox="0 0 350 500"><defs><style>.cls-1{fill:#f4f391;}.cls-2{fill:#f9f28d;}.cls-3{fill:#ddb9b0;}.cls-12,.cls-4{fill:#fff;}.cls-5{fill:#879fd0;}.cls-6{fill:#060404;}.cls-7{fill:#fdfdf8;}.cls-8{fill:#a21f23;}.cls-9{fill:none;stroke:#59342f;}.cls-12,.cls-9{stroke-miterlimit:10;}.cls-10{fill:#dd91cb;}.cls-11{fill:#040402;}.cls-12{stroke:#000;}</style></defs><title>nogen</title><g id="Layer_3" data-name="Layer 3"><path class="cls-1" d="M145.54,119.48s9-7.86,20.77-23c0,0,28.07,20.21,51.65,19.09,0,0,7.29,19.08-9.55,39.29,0,0,15.16-.56,24.14-35.36,0,0,2.81-48.28-28.63-57.82,0,0-21.33-15.16-43.22,4.49,0,0-28.07,10.1-24.14,36.49,0,0-9.54,35.92,18.53,54.44Z"/><path class="cls-2" d="M164.07,61.66s-17.4-12.35,6.17-20.77c0,0,6.18-6.18,27.51,0,0,0,15.72,5.61,6.17,20.77Z"/><path class="cls-3" d="M145.54,118.91,164.63,97l54.45,19.09,1.68,7.29s7.86-7.29,9,2.81c0,0,1.69,9.54-6.73,6.18,0,0-2.25,24.69-39.86,32.55,0,0-30.31-2.24-39.85-30.87,0,0-9,.56-7.86-10.67,0,0,3.37-7.29,10.1,0Z"/><polygon class="cls-3" points="171.93 157.08 173.61 176.73 193.26 176.73 193.26 159.33 171.93 157.08"/><path class="cls-4" d="M211.44,123.69s-2.08-12.47-15.6-10.39a14.88,14.88,0,0,0-11.43,10.39A24.15,24.15,0,0,0,211.44,123.69Z"/><ellipse class="cls-5" cx="197.92" cy="120.86" rx="6.24" ry="5.72"/><circle class="cls-6" cx="197.92" cy="120.34" r="2.08"/><path class="cls-7" d="M193.77,118.26c0-1.15,2.32-2.08,5.19-2.08"/><path class="cls-7" d="M201.54,123.89a2.37,2.37,0,0,1-2.29,2.38"/><path class="cls-4" d="M150.6,123.8s2-12.49,15.5-10.53a14.89,14.89,0,0,1,11.53,10.3A24.17,24.17,0,0,1,150.6,123.8Z"/><ellipse class="cls-5" cx="164.08" cy="120.05" rx="6.24" ry="5.72" transform="translate(-1.03 1.41) rotate(-0.49)"/><circle class="cls-6" cx="164.09" cy="120.57" r="2.08"/><path class="cls-7" d="M160,122.68c0,1.15,2.34,2.06,5.21,2"/><path class="cls-7" d="M167.68,117a2.38,2.38,0,0,0-2.32-2.36"/><path class="cls-8" d="M160.76,141.34h-.56s22.52,23.65,38.85,0C199.05,141.34,186.1,154.85,160.76,141.34Z"/><path class="cls-9" d="M175.12,115.72S165,105,153.72,114"/><path class="cls-9" d="M210,115.72S199.89,105,188.63,114"/></g><g id="Layer_4" data-name="Layer 4"><path class="cls-3" d="M170.5,173.5s-15,0-14,2c0,0-10,3-8,22,0,0-10.39,47.16-10.45,70,0,4.23.45,8-2.82,12.2s-9.73,18.78,3.27,14.78c0,0,6-2,5-5v-8s2,15,6,9c0,0-2-10-5-14,0,0,9-42,15-80l3,31s-6,21-7,29l7,79a327.72,327.72,0,0,0,3,63,5.28,5.28,0,0,1-4,5s-23,2-23,5c0,0-13,9,19,6,0,0,25,3,17-9,0,0,10-59,2-66l4-59,4,59s-5,2,2,63c0,0-7,20,13,13,0,0,43,6,23-9l-23-4s-3-1-2-6c0,0,6-24,3-57l7-85-8-27,3-30,15,79-4,19s2,8,5-4c0,0,13,22,13-4,0,0-2-11-7-13,0,0,0-44-9-76,0,0,2-20-12-25Z"/></g><g id="Layer_5" data-name="Layer 5"><path class="cls-10" d="M157,250h49s5,5-2,45l-3,45,1,65H186s-6-67-1-66l-4-56-4,56s7,8-2,66H162l-1-66-2-45S155,261,157,250Z"/></g><g id="Layer_6" data-name="Layer 6"><rect class="cls-11" x="143" y="190" width="79" height="19"/><path class="cls-4" d="M159.69,397s1.81-.31,2.72,3.32c0,0,6.64,1.81,11.48-.61,0,0,3.92-1.2,3.92,2.12v13s0,2.11-2.72,2.11H134.62s-4.23-1.81,0-10Z"/><path class="cls-4" d="M164.41,400.33s7.25,9.36,15.4,1.51c0,0-.3-3.63-3.32-2.12C176.49,399.72,170.15,402.44,164.41,400.33Z"/><ellipse class="cls-12" cx="146.25" cy="404.72" rx="0.38" ry="2.28" transform="translate(-146.44 89.25) rotate(-22.99)"/><ellipse class="cls-12" cx="149.27" cy="403.51" rx="0.38" ry="2.28" transform="translate(-145.72 90.33) rotate(-22.99)"/><ellipse class="cls-12" cx="152.29" cy="402.3" rx="0.38" ry="2.28" transform="translate(-145.01 91.42) rotate(-22.99)"/><ellipse class="cls-12" cx="155.31" cy="401.09" rx="0.38" ry="2.28" transform="translate(-144.3 92.5) rotate(-22.99)"/><ellipse class="cls-12" cx="158.63" cy="400.19" rx="0.38" ry="2.28" transform="translate(-143.68 93.73) rotate(-22.99)"/><path class="cls-4" d="M201.86,397s-1.81-.31-2.72,3.32c0,0-6.64,1.81-11.47-.61,0,0-3.93-1.2-3.93,2.12v13s0,2.11,2.72,2.11h40.47s4.23-1.81,0-10Z"/><path class="cls-4" d="M199.14,400.33s-7.25,9.36-15.4,1.51c0,0,.3-3.63,3.32-2.12C187.06,399.72,193.4,402.44,199.14,400.33Z"/><ellipse class="cls-12" cx="217.3" cy="404.72" rx="2.28" ry="0.38" transform="translate(-240.14 446.72) rotate(-67.01)"/><ellipse class="cls-12" cx="214.28" cy="403.51" rx="2.28" ry="0.38" transform="translate(-240.87 443.2) rotate(-67.01)"/><ellipse class="cls-12" cx="211.26" cy="402.3" rx="2.28" ry="0.38" transform="translate(-241.6 439.68) rotate(-67.01)"/><ellipse class="cls-12" cx="208.24" cy="401.09" rx="2.28" ry="0.38" transform="translate(-242.33 436.17) rotate(-67.01)"/><ellipse class="cls-12" cx="204.92" cy="400.19" rx="2.28" ry="0.38" transform="translate(-243.52 432.55) rotate(-67.01)"/></g></svg>
