<svg xmlns="http://www.w3.org/2000/svg" width="1920" height="1080" viewBox="0 0 1920 1080"><defs><style>.cls-1{fill:#50300b;}.cls-2,.cls-3,.cls-9{fill:#f0cb77;}.cls-3{stroke:#f0cb77;}.cls-3,.cls-5,.cls-6,.cls-7,.cls-8,.cls-9{stroke-miterlimit:10;}.cls-4{fill:#fcd759;}.cls-5{fill:#1d1e30;}.cls-5,.cls-6{stroke:#000;}.cls-6{fill:#00040b;}.cls-7{fill:#09062b;}.cls-7,.cls-8,.cls-9{stroke:#0c0206;}.cls-8{fill:#04050b;}</style></defs><title>pige1</title><g id="Layer_6" data-name="Layer 6"><path class="cls-1" d="M1626.88,46s-2.85-30,27.12-20l65.64-1.43s57.08,4.28,64.21,54.23c0,0,44.24,59.93,14.27,135.56,0,0-11.42,47.09,2.85,72.77l-42.81,24.26-158.39-4.28s-37.1-8.56-48.52-25.68l7.14-11.42-7.14-7.13,8.57-21.41S1548.4,61.71,1626.88,46Z"/><path class="cls-2" d="M1661.13,255.78v29.81L1634,294.31s51.37,54.22,95.61,0l-24.26-10V258.64Z"/><path class="cls-3" d="M1634.57,88.11s-34.8.72-24.81,87.76c0,0-25.69-15.7-28.54,20,0,0,1.43,20,27.11,14.27,0,0,4.28,58.5,97,47.09,0,0,41.38-4.28,52.79-47.09,0,0,34.25,8.56,24.26-25.69,0,0-4.28-17.12-25.68-11.41l-1.43-28.54S1666.52,160.17,1634.57,88.11Z"/><polygon class="cls-2" points="1634.02 395.63 1641.15 429.87 1614.04 452.7 1752.46 452.7 1723.92 431.3 1735.33 395.63 1634.02 395.63"/><path class="cls-2" d="M1561.82,353.55l-47.09,28.54s-17.13,15.69,4.28,32.82l58.5,85.61a23.84,23.84,0,0,0,25.69,5.71s22.83-5.71,21.4-21.4c0,0-7.13-21.41-25.68-15.7l-41.39-68.49,25.69-11.42Z"/><path class="cls-4" d="M1633,283.14s-44.24,16.18-82.77,60.68l25.69,66.75,37.1-34.39,7.14,72.82H1742.9l4.28-58.66,25.68,36.41,41.38-60.68s-61.36-87-85.61-82.93C1728.63,283.14,1693,362,1633,283.14Z"/><path class="cls-5" d="M1634.05,240.35l4.79-2.4s4.79-.8,5.58,7.18l34.32,117.31s1.59,4.79-6.39,8c0,0,1.6-7.18.8-9.58s0,2.4,0,2.4Z"/><path class="cls-6" d="M1610.11,260.3l23.14-19.16s4-1.59,4.79,4.79l35.11,117.31s2.4,10.37-5.58,7.18L1642,368s-4-.8-4.79-8l-27.13-94.17S1607.72,261.89,1610.11,260.3Z"/><path class="cls-2" d="M1772.43,385.64l-44.23,42.81s-18.55,15.69-31.4-8.57l-55.65-92.75s-38.53-25.69,0-38.53l12.85,7.14,4.28-18.55s5.7-12.85,10,0l-1.43,25.68,55.65,82.77,22.83-24.26Z"/><path class="cls-7" d="M1752.46,452.7s31.39,24.26,31.39,158.4L1821,973.55l-35.67,8.56-85.62-421H1674l4.28,421h-38.52l-47.09-446.64s-7.14-69.92,21.4-82.77Z"/><path class="cls-8" d="M1622.6,1014.93s-34.25,12.84-32.82,38.53c0,0,14.27,11.42,50-7.13,0,0,28.54-14.27,40-30,0,0,4.28-5.71,0-15.7Z"/><path class="cls-8" d="M1789.56,1000.66s-5.71,5.71,0,12.84c0,0,18.55,24.26,44.23,32.83,0,0,35.68,17.12,45.67,4.28,0,0,4.28-17.13-34.25-41.39Z"/><path class="cls-9" d="M1782.77,987.31l7.13,17.66s40.36,26.85,58.75,15.27c0,0,8.24-2.74-2.45-15.5l-30-6.82-5-22.33Z"/><path class="cls-9" d="M1644,982.11l1.42,21.41-22.83,10s-11.41,17.13,11.42,14.27c0,0,25.68,0,45.66-27.11,0,0-4.28,4.28-5.71-18.55Z"/></g></svg>
