<svg id="Layer_11" data-name="Layer 11" xmlns="http://www.w3.org/2000/svg" width="1920" height="1080" viewBox="0 0 1920 1080"><defs><style>.cls-1{fill:#1d1e30;}.cls-1,.cls-10,.cls-2{stroke:#000;stroke-miterlimit:10;}.cls-2{fill:#00040b;}.cls-3{fill:#dabc83;}.cls-4{fill:#432b27;}.cls-5{fill:#242558;}.cls-6{fill:#211655;}.cls-7{fill:#080b11;}.cls-8{fill:#01010a;}.cls-9{fill:#f7f5f7;}.cls-10{fill:none;}</style></defs><title>pige3_3</title><path class="cls-1" d="M657.92,566.77l-4.07-2s-4.06-.67-4.74,6.11L620,670.5s-1.35,4.07,5.43,6.78c0,0-1.36-6.1-.68-8.14s0,2,0,2Z"/><path class="cls-2" d="M678.26,583.72,658.6,567.45s-3.39-1.36-4.07,4.06L624.7,671.18s-2,8.81,4.75,6.1l21.69-2s3.39-.68,4.07-6.78l23-80S680.3,585.07,678.26,583.72Z"/><path class="cls-3" d="M472.83,505.75s-4.07,24.41,24.41,50.17v17.63s18.3,28.47,33.9,0v-8.82s27.8-.67,42.71-38l3.39-73.23H496.56l-10.17-3.39L485,480s-10.17-16.95-22.38,0C462.66,480,449.78,498.29,472.83,505.75Z"/><path class="cls-4" d="M532.07,465.41s-22.63,14.24-45.25,14.24c0,0-15.08-20.34-26.74,8.13,0,0-2.06,18.31,14.4,17.63,0,0-2.74,33.9,24.68,51.53v16.27l-17.14,42-40.45-31.86s-20.57-133.56,0-151.87c0,0,37.67-40.64,74.68-7.51a.07.07,0,0,0,.1,0c1.19-1.14,23.75-22.3,45.07-.09a.75.75,0,0,0,.3.2c2.57.9,32.71,12.17,32.06,43.33C593.78,467.44,569.78,488.46,532.07,465.41Z"/><path class="cls-5" d="M540.9,574.56S546.57,766,569.26,760.31L586.48,763s-1.71-178.51-32.15-179.58Z"/><path class="cls-6" d="M479.33,573.89s15.15,1.35,8.48,24.4c0,0-27.87,12.89-24.84,56.28l-5.46,99.66h94.54L566,618.63s-6.06-41.35-19.39-44.74L515.69,616.6Z"/><path class="cls-5" d="M478.75,573.54s-42.51,4.21-43.42,75c0,0-.85,38.85,54.49,58.06,0,0,43.92,12.68,85.92-13.95,0,0,43-30.79,51.53-43.06L611.79,627.1s-44.6,44.53-66.84,47.06c0,0-62,15.36-71.06-11.78,0,0-8.78-15.59-8.61-21.73,0,0-1.68-28.43,24.9-44.25C490.18,596.4,495.86,574.84,478.75,573.54Z"/><path class="cls-3" d="M609.78,649.48s-13.55-29.83,12.89-42.71c0,0,29.83-10.17,38.64,5.42,0,0,.68,8.14-10.17,10.85,0,0,8.14,45.43-31.86,35.93Z"/><path class="cls-7" d="M578.34,754.44l70.51-.93s19,5.17,20,23.47l77.43,163.74s-5.21,16.34-33.62,21.46L633.16,797.79l-30.51.4-3.07-27.08Z"/><path class="cls-8" d="M564.36,751.18H458.59s-11.52,33.9,24.41,44.75h83.39l28.48,164.75s12.2,8.13,39.32,0L607.07,775.59S609.11,747.79,564.36,751.18Z"/><path class="cls-5" d="M632.16,955.25s-4.07-.67-6.1,7.46c0,0-14.92,4.07-25.77-1.36,0,0-8.81-2.71-8.81,4.75v29.15s0,4.75,6.1,4.75h90.85s9.49-4.07,0-22.37Z"/><path class="cls-5" d="M743.7,946.22s-2.38,25.12-29.58,19.37l14.59,26.93s4.12,3.34,15.55-3.59L817,950s.45-17-13.8-18.12l-55.54,4.8S742.21,936.07,743.7,946.22Z"/><path class="cls-9" d="M626.06,962.71s-16.28,21-34.58,3.39c0,0,.68-8.14,7.46-4.75C598.94,961.35,613.17,967.46,626.06,962.71Z"/><ellipse class="cls-10" cx="666.81" cy="972.56" rx="5.13" ry="0.85" transform="translate(-488.93 1206.63) rotate(-67.01)"/><ellipse class="cls-10" cx="786.14" cy="935.7" rx="0.85" ry="5.13"/><ellipse class="cls-10" cx="778" cy="937.38" rx="0.85" ry="5.13"/><ellipse class="cls-10" cx="771.22" cy="938.05" rx="0.85" ry="5.13"/><ellipse class="cls-10" cx="763.09" cy="938.73" rx="0.85" ry="5.13"/><ellipse class="cls-10" cx="756.31" cy="938.41" rx="0.85" ry="5.13"/><ellipse class="cls-10" cx="660.03" cy="969.85" rx="5.13" ry="0.85" transform="matrix(0.39, -0.92, 0.92, 0.39, -490.56, 1198.73)"/><ellipse class="cls-10" cx="653.25" cy="967.14" rx="5.13" ry="0.85" transform="translate(-492.2 1190.84) rotate(-67.01)"/><ellipse class="cls-10" cx="646.47" cy="964.43" rx="5.13" ry="0.85" transform="translate(-493.83 1182.95) rotate(-67.01)"/><ellipse class="cls-10" cx="639.01" cy="962.39" rx="5.13" ry="0.85" transform="translate(-496.51 1174.84) rotate(-67.01)"/><rect class="cls-9" x="591.48" y="993.9" width="99.66" height="6.1" rx="2.8" ry="2.8" transform="translate(1282.62 1993.9) rotate(180)"/><rect class="cls-9" x="728.01" y="969.63" width="95.76" height="6.1" rx="2.8" ry="2.8" transform="translate(1913.96 1475.6) rotate(152.42)"/><path class="cls-9" d="M743.7,946.22s-16.08,14.45-24.28,9.81c0,0-8.08,4.18-5.3,9.56C714.12,965.59,739.31,973.4,743.7,946.22Z"/><polygon class="cls-3" points="487.34 586.35 516.5 623.38 548.36 574.57 530.06 574.57 496.16 574.57 480.56 574.57 487.34 586.35"/></svg>
