<svg id="Layer_10" data-name="Layer 10" xmlns="http://www.w3.org/2000/svg" width="1920" height="1080" viewBox="0 0 1920 1080"><defs><style>.cls-1{fill:#020606;}.cls-1,.cls-6{stroke:#070705;}.cls-1,.cls-3,.cls-6{stroke-miterlimit:10;}.cls-2{fill:#563c28;}.cls-3{fill:#00040b;stroke:#000;}.cls-4{fill:#98048b;}.cls-5{fill:#fafbf4;}.cls-6{fill:#0b0203;}</style></defs><title>pige2_3</title><path class="cls-1" d="M967.5,240.5s20-11,34,12c0,0,24,14,30,71,0,0,5,8,35,20,0,0,26,19,3,29,0,0-17,23,4,29,0,0,44,16,10,41,0,0-34,27-75,3l-102-25s-31-11-8-48l-17-61s-4-50,50-74C931.5,237.5,961.5,221.5,967.5,240.5Z"/><path class="cls-2" d="M951,283s-45,51-66,43c0,0-14,23,14,20,0,0,5,31,37,35,0,0,39,6,52-29,0,0,27,3,19-20,0,0-5.5-15.5-22.5-4.5C984.5,327.5,966.5,314.5,951,283Z"/><path class="cls-2" d="M943.5,382.5v15s2,15,12,13c0,0,8,2,12-9v-32Z"/><path class="cls-2" d="M899.5,450.5l-9,33-35-48-3,22,34,56s8,14,15,0l16-37-3-22Z"/><path class="cls-3" d="M853.75,399.66,870,386.24s2.8-1.12,3.36,3.36l24.6,82.2s1.68,7.27-3.91,5l-17.9-1.68s-2.79-.56-3.35-5.59l-19-66S852.07,400.78,853.75,399.66Z"/><ellipse class="cls-2" cx="862.55" cy="437.72" rx="22.75" ry="14.01" transform="translate(-30.91 808.28) rotate(-49.43)"/><path class="cls-2" d="M994.5,454.5l-4,37,10,44,24,60-1,8,7,18s8,6,1-10l11,6s13-7-6-24l-24-90-6-52Z"/><polygon class="cls-2" points="905.5 622.5 924.5 905.5 898.5 922.5 903.5 926.5 942.5 912.5 949.5 610.5 905.5 622.5"/><polygon class="cls-2" points="959.5 610.5 966.5 910.5 1005.5 926.5 1010.5 920.5 985.5 907.5 1003.5 612.5 959.5 610.5"/><path class="cls-4" d="M931.5,401.5l-17,9s-8,5-8,12l-7,29,16,3,5,42s-40,95-35,136h140s0-60-35-141l4-37,14-3-5-26s2-12-8-12l-24-16Z"/><path class="cls-5" d="M943.5,397.5s-15,7-12,23c0,0,3,14,18,7l6-5,5,7s16,3,18-9c0,0,3-14-11-23Z"/><path class="cls-6" d="M898.5,922.5s-19,10-5,13l51-17v-6Z"/><path class="cls-6" d="M966.5,910.5v8l48,17s12,4,4-9l-8-7Z"/></svg>
