<svg id="Layer_12" data-name="Layer 12" xmlns="http://www.w3.org/2000/svg" width="1920" height="1080" viewBox="0 0 1920 1080"><defs><style>.cls-1{fill:#b75d22;}.cls-2{fill:#ca5b0e;}.cls-3{fill:#ddb9b0;}.cls-4{fill:#050708;stroke:#080b11;}.cls-4,.cls-5{stroke-miterlimit:10;}.cls-5{fill:#00040b;stroke:#000;}.cls-6{fill:#af2851;}</style></defs><title>pige4_3</title><path class="cls-1" d="M1546,509.16s16-14,36.89-40.87c0,0,49.85,35.89,91.72,33.89,0,0,13,33.9-16.95,69.79,0,0,26.92-1,42.87-62.81,0,0,5-85.74-50.84-102.68,0,0-37.89-26.92-76.77,8,0,0-49.85,17.95-42.87,64.8,0,0-17,63.81,32.9,96.71Z"/><path class="cls-2" d="M1578.87,406.48s-30.9-21.94,11-36.89c0,0,11-11,48.85,0,0,0,27.91,10,11,36.89Z"/><path class="cls-3" d="M1546,508.17l33.9-38.88,96.7,33.89,3,13s14-13,16,5c0,0,3,17-12,11,0,0-4,43.87-70.78,57.83,0,0-53.84-4-70.79-54.84,0,0-16,1-14-18.94,0,0,6-13,17.94,0Z"/><polygon class="cls-3" points="1592.83 575.96 1595.82 610.85 1630.71 610.85 1630.71 579.95 1592.83 575.96"/><path class="cls-3" d="M1589.84,611.85s-43.87-8-39.88,55.83c0,0-21.93,126.61-15,134.59,0,0-15,5-14,22.93,0,0,0,20.94,20.93,12v-12l8,14s6-3-2-23.93l-2-15,26.92-146.56Z"/><polygon class="cls-3" points="1589.34 611.35 1611.27 600.38 1633.21 609.36 1638.19 643.25 1613.27 680.14 1582.36 638.27 1589.34 611.35"/><path class="cls-4" d="M1588.84,612.35l-7,26.8s28.91,14.89,29.91,36.73c0,0,14-33.75,25.92-31.77l-4-31.76,13,31.76s8,21.84,0,40.7v28.78c-1.36-2.91,12.67,43.29,12,50.63,0,0,4,59.55,16.95,164.77,0,0-53.84,53.6-126.62,0l15-161.8s4-29.77,12-53.6l1-33.74-5-25.81Z"/><path class="cls-3" d="M1572.89,856.11l10,172.47-27.92,14s-13,9,17,12l31.91-7V856.11Z"/><path class="cls-3" d="M1612.77,856.11l11,190.41,47.86,5s22.93-10,0-11l-23.93-10-6-174.46Z"/><path class="cls-5" d="M1539.24,571.14l16.17-13.38s2.78-1.12,3.34,3.34l24.53,82s1.67,7.25-3.9,5l-17.84-1.68s-2.79-.55-3.35-5.57l-19-65.79S1537.57,572.25,1539.24,571.14Z"/><path class="cls-3" d="M1632.21,609.36s27.91-7,33.9,7c0,0-6,66.79-28.92,73.77l-91.72-71.78s-13-20.94,9-14l8,5-2-10s5-7,8,10v7.34l61.81,49.48,16-26.91Z"/><path class="cls-6" d="M1571.73,1034.62s-20.59-4.15-28.63,9.47c0,0,2.89,10.33,26.09,12,0,0,18.37,1.63,29.11-2.84,0,0,4-1.58,5.32-8Z"/><path class="cls-6" d="M1623.36,1043a5.34,5.34,0,0,0,3.37,6.57s16.08,7.44,31.76,4.93c0,0,23.15-.8,25-10.06,0,0-2.26-9.92-28.78-12Z"/></svg>
