<svg id="pige" xmlns="http://www.w3.org/2000/svg" width="1920" height="1080" viewBox="0 0 1920 1080"><defs><style>.cls-1{fill:#1d1e30;}.cls-1,.cls-11,.cls-2{stroke:#000;stroke-miterlimit:10;}.cls-2{fill:#00040b;}.cls-3{fill:#dabc83;}.cls-4{fill:#f7e160;}.cls-5{fill:#8c0b78;}.cls-6{fill:#6b086e;}.cls-7{fill:#67737e;}.cls-8{fill:#676c78;}.cls-9{fill:#fcdde8;}.cls-10{fill:#f7f5f7;}.cls-11{fill:none;}</style></defs><title>pige2</title><path class="cls-1" d="M458.6,352.5l-6-3s-6-1-7,9l-43,147s-2,6,8,10c0,0-2-9-1-12s0,3,0,3Z"/><path class="cls-2" d="M488.6,377.5l-29-24s-5-2-6,6l-44,147s-3,13,7,9l32-3s5-1,6-10l34-118S491.6,379.5,488.6,377.5Z"/><path class="cls-3" d="M185.6,262.5s-6,36,36,74v26s27,42,50,0v-13s41-1,63-56l5-108h-119l-15-5-2,44s-15-25-33,0C170.6,224.5,151.6,251.5,185.6,262.5Z"/><path class="cls-4" d="M273,203s-33.37,21-66.74,21c0,0-22.25-30-39.44,12,0,0-3,27,21.23,26,0,0-4,50,36.41,76v24l-25.28,62-59.67-47s-30.33-197,0-224c0,0,55.57-59.94,110.15-11.07a.11.11,0,0,0,.15,0c1.76-1.69,35-32.89,66.48-.14a1.11,1.11,0,0,0,.45.3C320.49,143.42,365,160,364,206,364,206,328.59,237,273,203Z"/><path class="cls-5" d="M286,364s8.36,282.37,41.82,274l25.4,4S350.7,378.7,305.8,377.12Z"/><path class="cls-6" d="M195.18,363s22.35,2,12.51,36c0,0-41.11,19-36.65,83l-8,147H302.44L323,429s-8.94-61-28.6-66l-45.59,63Z"/><path class="cls-5" d="M194.32,362.49s-62.7,6.22-64,110.69c0,0-1.25,57.3,80.38,85.63,0,0,64.77,18.69,126.73-20.58,0,0,63.45-45.42,76-63.52l-22.83-33.22S324.77,507.17,292,510.9c0,0-91.43,22.66-104.8-17.37,0,0-12.95-23-12.7-32.06,0,0-2.48-41.93,36.72-65.26C211.18,396.21,219.57,364.4,194.32,362.49Z"/><path class="cls-3" d="M387.6,474.5s-20-44,19-63c0,0,44-15,57,8,0,0,1,12-15,16,0,0,12,67-47,53Z"/><path class="cls-7" d="M341.22,627.84l104-1.38s28.11,7.63,29.46,34.62L588.88,902.59s-7.68,24.1-49.59,31.65L422.07,691.77l-45,.6-4.53-39.94Z"/><path class="cls-8" d="M320.6,624.5h-156s-17,50,36,66h123l42,243s18,12,58,0l-40-273S386.6,619.5,320.6,624.5Z"/><path class="cls-9" d="M420.6,925.5s-6-1-9,11c0,0-22,6-38-2,0,0-13-4-13,7v43s0,7,9,7h134s14-6,0-33Z"/><path class="cls-9" d="M588.06,916.6s-3.51,37-43.62,28.58L566,984.9s6.07,4.92,22.94-5.31l107.25-57.42s.66-25-20.36-26.74l-81.91,7.09S585.86,901.63,588.06,916.6Z"/><path class="cls-10" d="M411.6,936.5s-24,31-51,5c0,0,1-12,11-7C371.6,934.5,392.6,943.5,411.6,936.5Z"/><ellipse class="cls-11" cx="471.71" cy="951.03" rx="7.56" ry="1.26" transform="translate(-588.02 1013.89) rotate(-67.01)"/><ellipse class="cls-11" cx="647.71" cy="904.03" rx="1.26" ry="7.56"/><ellipse class="cls-11" cx="635.71" cy="905.03" rx="1.26" ry="7.56"/><ellipse class="cls-11" cx="625.71" cy="906.03" rx="1.26" ry="7.56"/><ellipse class="cls-11" cx="613.71" cy="907.03" rx="1.26" ry="7.56"/><ellipse class="cls-11" cx="603.71" cy="908.03" rx="1.26" ry="7.56"/><ellipse class="cls-11" cx="461.71" cy="947.03" rx="7.56" ry="1.26" transform="translate(-590.43 1002.25) rotate(-67.01)"/><ellipse class="cls-11" cx="451.71" cy="943.03" rx="7.56" ry="1.26" transform="translate(-592.84 990.61) rotate(-67.01)"/><ellipse class="cls-11" cx="441.71" cy="939.03" rx="7.56" ry="1.26" transform="translate(-595.25 978.96) rotate(-67.01)"/><ellipse class="cls-11" cx="430.71" cy="936.03" rx="7.56" ry="1.26" transform="translate(-599.2 967.01) rotate(-67.01)"/><rect class="cls-10" x="360.6" y="982.5" width="147" height="9" rx="4.5" ry="4.5" transform="translate(868.19 1974) rotate(-180)"/><rect class="cls-10" x="561.97" y="946.71" width="141.24" height="9" rx="4.5" ry="4.5" transform="translate(1633.71 1501.44) rotate(152.42)"/><path class="cls-10" d="M588.06,916.6s-23.72,21.31-35.81,14.47c0,0-11.92,6.16-7.81,14.11C544.44,945.18,581.59,956.69,588.06,916.6Z"/><polygon class="cls-3" points="207 381.38 250 436 297 364 270 364 220 364 197 364 207 381.38"/></svg>
