<svg id="Layer_8" data-name="Layer 8" xmlns="http://www.w3.org/2000/svg" width="1920" height="1080" viewBox="0 0 1920 1080"><defs><style>.cls-1{fill:#e0644b;}.cls-2,.cls-3{fill:#f0cb77;}.cls-3{stroke:#f0cb77;}.cls-3,.cls-5,.cls-6,.cls-7{stroke-miterlimit:10;}.cls-4{fill:#fc9dcd;}.cls-5{fill:#1d1e30;}.cls-5,.cls-6{stroke:#000;}.cls-6{fill:#00040b;}.cls-7{fill:#09030d;stroke:#0c0206;}.cls-8{fill:#af2851;}</style></defs><title>pige1_3</title><path class="cls-1" d="M272.5,327.5s-2-21,19-14l46-1s40,3,45,38c0,0,31,42,10,95,0,0-8,33,2,51l-30,17-111-3s-26-6-34-18l5-8-5-5,6-15S217.5,338.5,272.5,327.5Z"/><path class="cls-2" d="M296.5,474.5v20.89l-19,6.11s36,38,67,0l-17-7v-18Z"/><path class="cls-3" d="M277.89,357s-24.39.5-17.39,61.5c0,0-18-11-20,14,0,0,1,14,19,10,0,0,3,41,68,33,0,0,29-3,37-33,0,0,24,6,17-18,0,0-3-12-18-8l-1-20S300.28,407.5,277.89,357Z"/><polygon class="cls-2" points="277.5 572.5 282.5 596.5 263.5 612.5 360.5 612.5 340.5 597.5 348.5 572.5 277.5 572.5"/><path class="cls-2" d="M225.5,532.5l-33,20s-12,11,3,23l41,60a16.71,16.71,0,0,0,18,4s16-4,15-15c0,0-5-15-18-11l-29-48,18-8Z"/><path class="cls-4" d="M277.5,500.5s-31,8-58,30l18,33,26-17,5,36h86l3-29,18,18,29-30s-43-43-60-41C344.5,500.5,319.5,539.5,277.5,500.5Z"/><path class="cls-5" d="M277.52,463.68l3.36-1.67s3.35-.56,3.91,5l24,82.2s1.12,3.36-4.47,5.6c0,0,1.11-5,.55-6.71s0,1.67,0,1.67Z"/><path class="cls-6" d="M260.75,477.66,277,464.24s2.8-1.12,3.36,3.36l24.6,82.2s1.68,7.27-3.91,5l-17.9-1.68s-2.79-.56-3.35-5.59l-19-66S259.07,478.78,260.75,477.66Z"/><path class="cls-2" d="M374.5,565.5l-31,30s-13,11-22-6l-39-65s-27-18,0-27l9,5,3-13s4-9,7,0l-1,18,39,58,16-17Z"/><path class="cls-7" d="M360.5,612.5s22,17,22,111l26,254-25,6-60-295h-18l3,295h-27l-33-313s-5-49,15-58Z"/><path class="cls-8" d="M269.5,1006.5s-24,9-23,27c0,0,10,8,35-5,0,0,20-10,28-21,0,0,3-4,0-11Z"/><path class="cls-8" d="M386.5,996.5s-4,4,0,9c0,0,13,17,31,23,0,0,25,12,32,3,0,0,3-12-24-29Z"/><path class="cls-2" d="M383.5,983.5l3,13s25,23,39,17c0,0,6-1,0-11l-20-8-1-16Z"/><path class="cls-2" d="M284.5,983.5l1,15-16,7s-8,12,8,10c0,0,18,0,32-19,0,0-3,3-4-13Z"/></svg>
