<svg xmlns="http://www.w3.org/2000/svg" width="1920" height="1080" viewBox="0 0 1920 1080"><defs><style>.cls-1{fill:#434643;}.cls-2{fill:#434d43;}.cls-3{fill:#070b0d;}.cls-4{fill:#b4f0f3;}.cls-5{fill:#6b461f;}.cls-6{fill:#2b2917;}.cls-7{fill:#95b374;}.cls-8{fill:#95bb60;}.cls-9{fill:#b5eaea;}.cls-10{fill:#f4e7d9;}.cls-11{fill:#f4efe3;}.cls-12{fill:#fff292;}.cls-13{fill:#0b0b0b;}.cls-14{fill:#5aa3ad;}.cls-15{fill:#d2f6ef;}.cls-16{fill:#020408;}.cls-17{fill:none;stroke:#000;stroke-miterlimit:10;stroke-width:18px;}.cls-18{fill:#f6f6fb;}</style></defs><title>scene1</title><g id="baggrund"><rect class="cls-1" x="-100" y="904" width="2092" height="413"/><rect class="cls-2" x="-86" y="-32" width="2092" height="898"/><rect class="cls-3" x="354.5" y="342.5" width="465" height="16"/><path d="M819,343v15H355V343H819m1-1H354v17H820V342Z"/><ellipse class="cls-4" cx="585.12" cy="192" rx="138.92" ry="151.5"/><path d="M585.12,41c37,0,71.71,15.7,97.85,44.2s40.58,66.45,40.58,106.8S709.14,270.28,683,298.8,622.08,343,585.12,343s-71.7-15.7-97.85-44.2S446.7,232.35,446.7,192s14.41-78.28,40.57-106.8S548.17,41,585.12,41m0-1c-77,0-139.42,68.05-139.42,152s62.42,152,139.42,152S724.55,276,724.55,192,662.13,40,585.12,40Z"/><ellipse class="cls-5" cx="441.26" cy="301.74" rx="21.06" ry="3.55"/><path class="cls-6" d="M418.79,301.51l7.57,44s15.61,7.1,29.81,0l6.62-44S440.55,307.66,418.79,301.51Z"/><path class="cls-7" d="M437.24,296.78h4.26s0-31.23-4.26-38.33c0,0,16.56-53-34.54-71.45,0,0-3.31,53.47,26.5,72.87C429.2,259.87,441,264.13,437.24,296.78Z"/><path class="cls-8" d="M374.31,196.94s82.8,42.11,55.36,64.82c0,0,8.52,12.78,11.83,39.75h-6.81s-1.24-28.87-6.44-34.07C428.25,267.44,393.71,265.55,374.31,196.94Z"/><path class="cls-7" d="M427.59,301l4.73-.42s.66-12.35-4.54-21.34c0,0,7.09-18-9-22.71,0,0-4.74-5.68-21.3-6.16,0,0,9.94,25.56,25.08,29.34C422.57,279.74,431.19,290.15,427.59,301Z"/><path class="cls-8" d="M441.5,218.7s32.17,34.54,0,34.07c0,0,3.78,29.34,0,49.68h-5.21s7.1-22.24,0-49.68C436.29,252.77,415,249.93,441.5,218.7Z"/><path class="cls-7" d="M435.82,302l10.88-28.39S433.45,251.35,486,222c0,0-27,69.09-35,51.58C451,273.59,443.39,297.25,435.82,302Z"/><path class="cls-8" d="M445.28,302l5.21-.47s.94-27.92,13.25-45.43c0,0,9.46,2.37,48.26-26.49,0,0-44.95-2.37-54.41,24.6Z"/><rect class="cls-9" x="604" y="59" width="11" height="198" transform="translate(312.44 -397.17) rotate(47.32)"/><rect class="cls-9" x="628.51" y="56.5" width="10.99" height="76.93" transform="translate(274 -435.48) rotate(47.32)"/></g><g id="badekar"><rect class="cls-10" x="1119" y="704" width="775" height="37" rx="12" ry="12"/><path class="cls-11" d="M1150.18,741s72.32,191.5,211.32,187.5h294s154.29-5,211.64-187.5Z"/><path class="cls-12" d="M1277.5,905.5s-16,45-13,61l-9,18-4-6s-9,16,0,24,24-10,24-10l-10-2,7-19s22-16,29-54Z"/><path class="cls-12" d="M1736.5,905.5s16,45,13,61l9,18,4-6s9,16,0,24-24-10-24-10l10-2-7-19s-22-16-29-54Z"/></g><g id="håndvask"><rect class="cls-10" x="432" y="472" width="313" height="29" rx="12" ry="12"/><path class="cls-11" d="M444,501s-13,67,75,103c0,0,28,40,35,101l7,145s-13,49-111,61c0,0-23,4,1,18H716s18-11,0-18c0,0-69-9-104-56l5-150s5-61,34-99c0,0,71-17,82-105Z"/><path class="cls-13" d="M590,472h-8.35V408s0-24.25,24.52-19.28c0,0,17.22-.62,15.13,25.5l-7.3-1.25s0-22.15-16.18-13.44c0,0-9.39,1-8.87,15.93Z"/><rect class="cls-13" x="609.78" y="410.96" width="14.61" height="10.43"/><ellipse class="cls-13" cx="555.36" cy="458.37" rx="3.21" ry="6.16" transform="translate(-136.48 658.11) rotate(-55.64)"/><ellipse class="cls-13" cx="565.09" cy="464.63" rx="3.21" ry="6.16" transform="translate(-137.4 668.86) rotate(-55.64)"/><ellipse class="cls-13" cx="556.39" cy="464.63" rx="6.36" ry="3.11" transform="translate(-156.29 332.17) rotate(-29.34)"/><ellipse class="cls-13" cx="565.09" cy="458.37" rx="6.23" ry="3.18" transform="matrix(0.84, -0.54, 0.54, 0.84, -158.01, 377.41)"/><ellipse class="cls-13" cx="604.36" cy="457.37" rx="3.21" ry="6.16" transform="translate(-114.31 698.12) rotate(-55.64)"/><ellipse class="cls-13" cx="614.09" cy="463.63" rx="3.21" ry="6.16" transform="translate(-115.23 708.88) rotate(-55.64)"/><ellipse class="cls-13" cx="605.39" cy="463.63" rx="6.36" ry="3.11" transform="translate(-149.51 356.05) rotate(-29.34)"/><ellipse class="cls-13" cx="614.09" cy="457.37" rx="6.23" ry="3.18" transform="matrix(0.84, -0.54, 0.54, 0.84, -149.73, 403.69)"/><path class="cls-13" d="M1880,704V655.47s-67.32-9.57-77,9c0,0,2.77,2.57,9.22.1,0,0,9.22-14.6,56.71-7V704Z"/><rect class="cls-14" x="683.26" y="446.89" width="16.74" height="25.11" rx="8.37" ry="8.37"/><rect class="cls-14" x="682.5" y="437" width="12.93" height="1.14" rx="0.57" ry="0.57"/><rect class="cls-14" x="690.49" y="437.76" width="2.66" height="5.71"/><rect class="cls-15" x="688.21" y="442.33" width="6.85" height="4.57"/><ellipse class="cls-16" cx="811" cy="494" rx="6" ry="22"/><ellipse class="cls-16" cx="1005" cy="494" rx="6" ry="22"/><line class="cls-17" x1="811" y1="494" x2="1005" y2="494"/><rect class="cls-18" x="854" y="472" width="117" height="229" rx="12" ry="12"/></g><g id="toilet"><path class="cls-11" d="M71.86,741.89s8,71,62.34,86.26c0,0-11.6,68.13-54.36,97.85,0,0-7.25,9.43,7.25,14.5H262.5s14.49-8.7,0-16.67c0,0-37-18.12-52.19-97.13,0,0,47.84,0,58.71-79.73,0,0,35.52-16.67,0-29H66.79S40.7,736.1,71.86,741.89Z"/><path class="cls-11" d="M62.08,548H277.36s16.67,7.25,13.77,31.89L274.46,689.34s.72,16.67-18.85,18.85H78.75S67.88,711.81,62.08,693L49.76,576.27S41.06,557.42,62.08,548Z"/><rect class="cls-10" x="68.6" y="703.12" width="202.95" height="15.22" rx="7.61" ry="7.61"/></g></svg>
