<svg id="Layer_6" data-name="Layer 6" xmlns="http://www.w3.org/2000/svg" width="1920" height="1080" viewBox="0 0 1920 1080"><defs><style>.cls-1{fill:#fafcfc;}</style></defs><title>scene4_skyer</title><path class="cls-1" d="M880,443.88s2.89-83.86,103-37.06c0,0,94.36-60.65,117.47,11.6,0,0,70.76,39.69,0,71.13,0,0-51,29.2-100.14,0C1000.35,489.55,910.33,545.71,880,443.88Z"/><path class="cls-1" d="M1224,288.39s2.69-74.92,96.07-33.11c0,0,88-54.18,109.54,10.37,0,0,66,35.45,0,63.55,0,0-47.59,26.09-93.38,0C1336.23,329.2,1252.28,379.37,1224,288.39Z"/><path class="cls-1" d="M1459,481.39s2.62-74.92,93.62-33.11c0,0,85.74-54.18,106.74,10.37,0,0,64.3,35.45,0,63.55,0,0-46.37,26.09-91,0C1568.37,522.2,1486.56,572.37,1459,481.39Z"/></svg>
