<svg xmlns="http://www.w3.org/2000/svg" xmlns:xlink="http://www.w3.org/1999/xlink" width="1920" height="1080" viewBox="0 0 1920 1080"><defs><style>.cls-1{fill:url(#linear-gradient);}.cls-2{fill:#3f1a23;}.cls-3{fill:#e6f5ed;}.cls-4{fill:#430419;}.cls-5{fill:#fcce33;}.cls-6{fill:#f2cc24;}.cls-7{fill:#fcdb43;}.cls-8{fill:#fcf261;}.cls-19,.cls-9{fill:#af612a;}.cls-10{fill:#e6f5f5;}.cls-11{fill:#6b461f;}.cls-12{fill:#2b2917;}.cls-13{fill:#95b374;}.cls-14{fill:#95bb60;}.cls-15{fill:#af4717;}.cls-15,.cls-16,.cls-18,.cls-19{stroke:#af612a;}.cls-15,.cls-16,.cls-18,.cls-19,.cls-24,.cls-26,.cls-27,.cls-28,.cls-30,.cls-34,.cls-42,.cls-46{stroke-miterlimit:10;}.cls-16{fill:#afd1d9;}.cls-17{fill:#afe1e6;}.cls-18,.cls-42{fill:none;}.cls-18{stroke-width:18px;}.cls-20{fill:#af7846;}.cls-21{fill:#af5808;}.cls-22{fill:#e0644b;}.cls-23,.cls-24{fill:#f0cb77;}.cls-24{stroke:#f0cb77;}.cls-25{fill:#fc9dcd;}.cls-26{fill:#1d1e30;}.cls-26,.cls-27,.cls-42{stroke:#000;}.cls-27{fill:#00040b;}.cls-28{fill:#09030d;stroke:#0c0206;}.cls-29{fill:#af2851;}.cls-30{fill:#020606;}.cls-30,.cls-34{stroke:#070705;}.cls-31{fill:#563c28;}.cls-32{fill:#98048b;}.cls-33{fill:#fafbf4;}.cls-34{fill:#0b0203;}.cls-35{fill:#dabc83;}.cls-36{fill:#432b27;}.cls-37{fill:#242558;}.cls-38{fill:#211655;}.cls-39{fill:#080b11;}.cls-40{fill:#01010a;}.cls-41{fill:#f7f5f7;}.cls-43{fill:#b75d22;}.cls-44{fill:#ca5b0e;}.cls-45{fill:#ddb9b0;}.cls-46{fill:#050708;stroke:#080b11;}</style><linearGradient id="linear-gradient" x1="959.5" y1="1125.5" x2="959.5" y2="-338.5" gradientUnits="userSpaceOnUse"><stop offset="0" stop-color="#cce0f4"/><stop offset="0.06" stop-color="#c3dcf2"/><stop offset="0.17" stop-color="#a9d2ee"/><stop offset="0.31" stop-color="#80c2e7"/><stop offset="0.46" stop-color="#47acde"/><stop offset="0.57" stop-color="#1e9cd7"/><stop offset="0.87" stop-color="#0075be"/><stop offset="0.99" stop-color="#005b97"/></linearGradient></defs><title>scene3_mm</title><g id="himmel"><rect class="cls-1" x="-63.5" y="-338.5" width="2046" height="1464" rx="11.5" ry="11.5"/><path d="M1971-338a11,11,0,0,1,11,11V1114a11,11,0,0,1-11,11H-52a11,11,0,0,1-11-11V-327a11,11,0,0,1,11-11H1971m0-1H-52a12,12,0,0,0-12,12V1114a12,12,0,0,0,12,12H1971a12,12,0,0,0,12-12V-327a12,12,0,0,0-12-12Z"/></g><g id="baggrund"><path class="cls-2" d="M-199-122V836H1997V-122ZM1468,496.5H1271V199.57h197Zm210,0H1481V199.57h197Z"/><rect class="cls-3" x="-199" y="837" width="2270" height="147"/><rect class="cls-4" x="-71" y="861" width="2081" height="251"/></g><g id="stol"><rect class="cls-5" x="398" y="552" width="313" height="228" rx="12" ry="12"/><rect class="cls-6" x="392" y="681" width="61" height="127" rx="12" ry="12"/><rect class="cls-6" x="662" y="678" width="61" height="127" rx="12" ry="12"/><rect class="cls-6" x="436" y="738" width="243" height="15" rx="7.5" ry="7.5"/><rect class="cls-7" x="413" y="744.5" width="284" height="105" rx="12" ry="12"/><rect class="cls-8" x="360.5" y="678.5" width="81" height="171" rx="12" ry="12"/><rect class="cls-8" x="671.5" y="678.5" width="81" height="171" rx="12" ry="12"/><circle class="cls-7" cx="504" cy="641" r="14"/><circle class="cls-7" cx="616" cy="641" r="14"/><path class="cls-9" d="M401,849l-6,81s5,9,11,2l22-72H686l18,65s8,9,14-2l-9-74Z"/></g><g id="vindue"><rect class="cls-10" x="1468" y="193" width="13" height="304.26"/><rect class="cls-10" x="1271" y="193" width="407" height="10.33"/><rect class="cls-10" x="1271" y="468.56" width="407" height="34.44"/><rect class="cls-10" x="1271" y="193" width="6" height="310"/><rect class="cls-10" x="1672" y="193" width="6" height="310"/></g><g id="plante"><ellipse class="cls-11" cx="1342.26" cy="431.52" rx="21.06" ry="4.07"/><path class="cls-12" d="M1319.79,431.25l7.57,50.52s15.61,8.15,29.81,0l6.62-50.52S1341.55,438.31,1319.79,431.25Z"/><path class="cls-13" d="M1338.24,425.82h4.26s0-35.86-4.26-44c0,0,16.56-60.84-34.54-82,0,0-3.31,61.39,26.5,83.66C1330.2,383.44,1342,388.33,1338.24,425.82Z"/><path class="cls-14" d="M1275.31,311.19s82.8,48.35,55.36,74.42c0,0,8.52,14.67,11.83,45.64h-6.81s-1.24-33.14-6.44-39.12C1329.25,392.13,1294.71,390,1275.31,311.19Z"/><path class="cls-13" d="M1328.59,430.71l4.73-.49s.66-14.18-4.54-24.5c0,0,7.09-20.65-9-26.08,0,0-4.74-6.52-21.3-7.06,0,0,9.94,29.33,25.08,33.68C1323.57,406.26,1332.19,418.21,1328.59,430.71Z"/><path class="cls-14" d="M1342.5,336.18s32.17,39.66,0,39.11c0,0,3.78,33.69,0,57h-5.21s7.1-25.54,0-57C1337.29,375.29,1316,372,1342.5,336.18Z"/><path class="cls-13" d="M1336.82,431.79l10.88-32.59S1334.45,373.66,1387,340c0,0-27,79.32-35,59.22C1352,399.2,1344.39,426.36,1336.82,431.79Z"/><path class="cls-14" d="M1346.28,431.79l5.21-.54s.94-32.05,13.25-52.15c0,0,9.46,2.71,48.26-30.43,0,0-45-2.71-54.41,28.25Z"/></g><g id="spej_kommode"><rect class="cls-15" x="294.5" y="600.5" width="29" height="78" rx="12" ry="12"/><rect class="cls-15" x="30.5" y="600.5" width="29" height="78" rx="12" ry="12"/><rect class="cls-16" x="59.5" y="263.5" width="232" height="544"/><rect class="cls-17" x="173.32" y="277.7" width="12.05" height="293.03" transform="translate(408.83 24.89) rotate(52.8)"/><rect class="cls-17" x="231.17" y="262.82" width="8.43" height="82.3" transform="translate(335.2 -67.3) rotate(52.8)"/><rect class="cls-18" x="55" y="263" width="239" height="549" rx="12" ry="12"/><path class="cls-19" d="M20.8,573.38c3.52-4,9-7.4,14.11,1.33A15.47,15.47,0,0,1,37,582.57V883.4c0,1.9-.16-2.68.5-.9,2.68,7.21,16.61,31.09,30,27,1.72-.53-1.8,0,0,0l221.72.48a15.83,15.83,0,0,0,9.79-3.33c5-3.9,12-11,12-20.65V584.19a15.69,15.69,0,0,1,2.89-9.13c3.19-4.45,8.45-8.84,12.88,1.57a15.8,15.8,0,0,1,1.23,6.14V890.06a15.52,15.52,0,0,1-.62,4.39,54.68,54.68,0,0,1-30.2,34.24,15.46,15.46,0,0,1-6.32,1.31H57.94a15.91,15.91,0,0,1-6.55-1.41c-6.86-3.11-22.09-12-32.75-33.15a15.61,15.61,0,0,1-1.64-7V583.68A15.65,15.65,0,0,1,20.8,573.38Z"/><rect class="cls-20" x="1219.5" y="528.5" width="499" height="394"/><rect class="cls-19" x="1205.5" y="508.5" width="525" height="20"/><rect class="cls-19" x="1222.5" y="922.5" width="493" height="17"/><rect class="cls-19" x="1219.5" y="656.5" width="499" height="6"/><rect class="cls-19" x="1219.5" y="790.5" width="499" height="6"/><circle class="cls-21" cx="1287" cy="596" r="14.5"/><circle class="cls-21" cx="1635.5" cy="596.5" r="14.5"/><circle class="cls-21" cx="1287" cy="725" r="14.5"/><circle class="cls-21" cx="1635.5" cy="725.5" r="14.5"/><circle class="cls-21" cx="1287" cy="859" r="14.5"/><circle class="cls-21" cx="1635.5" cy="859.5" r="14.5"/></g><g id="Layer_8" data-name="Layer 8"><path class="cls-22" d="M272.5,327.5s-2-21,19-14l46-1s40,3,45,38c0,0,31,42,10,95,0,0-8,33,2,51l-30,17-111-3s-26-6-34-18l5-8-5-5,6-15S217.5,338.5,272.5,327.5Z"/><path class="cls-23" d="M296.5,474.5v20.89l-19,6.11s36,38,67,0l-17-7v-18Z"/><path class="cls-24" d="M277.89,357s-24.39.5-17.39,61.5c0,0-18-11-20,14,0,0,1,14,19,10,0,0,3,41,68,33,0,0,29-3,37-33,0,0,24,6,17-18,0,0-3-12-18-8l-1-20S300.28,407.5,277.89,357Z"/><polygon class="cls-23" points="277.5 572.5 282.5 596.5 263.5 612.5 360.5 612.5 340.5 597.5 348.5 572.5 277.5 572.5"/><path class="cls-23" d="M225.5,532.5l-33,20s-12,11,3,23l41,60a16.71,16.71,0,0,0,18,4s16-4,15-15c0,0-5-15-18-11l-29-48,18-8Z"/><path class="cls-25" d="M277.5,500.5s-31,8-58,30l18,33,26-17,5,36h86l3-29,18,18,29-30s-43-43-60-41C344.5,500.5,319.5,539.5,277.5,500.5Z"/><path class="cls-26" d="M277.52,463.68l3.36-1.67s3.35-.56,3.91,5l24,82.2s1.12,3.36-4.47,5.6c0,0,1.11-5,.55-6.71s0,1.67,0,1.67Z"/><path class="cls-27" d="M260.75,477.66,277,464.24s2.8-1.12,3.36,3.36l24.6,82.2s1.68,7.27-3.91,5l-17.9-1.68s-2.79-.56-3.35-5.59l-19-66S259.07,478.78,260.75,477.66Z"/><path class="cls-23" d="M374.5,565.5l-31,30s-13,11-22-6l-39-65s-27-18,0-27l9,5,3-13s4-9,7,0l-1,18,39,58,16-17Z"/><path class="cls-28" d="M360.5,612.5s22,17,22,111l26,254-25,6-60-295h-18l3,295h-27l-33-313s-5-49,15-58Z"/><path class="cls-29" d="M269.5,1006.5s-24,9-23,27c0,0,10,8,35-5,0,0,20-10,28-21,0,0,3-4,0-11Z"/><path class="cls-29" d="M386.5,996.5s-4,4,0,9c0,0,13,17,31,23,0,0,25,12,32,3,0,0,3-12-24-29Z"/><path class="cls-23" d="M383.5,983.5l3,13s25,23,39,17c0,0,6-1,0-11l-20-8-1-16Z"/><path class="cls-23" d="M284.5,983.5l1,15-16,7s-8,12,8,10c0,0,18,0,32-19,0,0-3,3-4-13Z"/></g><g id="Layer_10" data-name="Layer 10"><path class="cls-30" d="M967.5,240.5s20-11,34,12c0,0,24,14,30,71,0,0,5,8,35,20,0,0,26,19,3,29,0,0-17,23,4,29,0,0,44,16,10,41,0,0-34,27-75,3l-102-25s-31-11-8-48l-17-61s-4-50,50-74C931.5,237.5,961.5,221.5,967.5,240.5Z"/><path class="cls-31" d="M951,283s-45,51-66,43c0,0-14,23,14,20,0,0,5,31,37,35,0,0,39,6,52-29,0,0,27,3,19-20,0,0-5.5-15.5-22.5-4.5C984.5,327.5,966.5,314.5,951,283Z"/><path class="cls-31" d="M943.5,382.5v15s2,15,12,13c0,0,8,2,12-9v-32Z"/><path class="cls-31" d="M899.5,450.5l-9,33-35-48-3,22,34,56s8,14,15,0l16-37-3-22Z"/><path class="cls-27" d="M853.75,399.66,870,386.24s2.8-1.12,3.36,3.36l24.6,82.2s1.68,7.27-3.91,5l-17.9-1.68s-2.79-.56-3.35-5.59l-19-66S852.07,400.78,853.75,399.66Z"/><ellipse class="cls-31" cx="862.55" cy="437.72" rx="22.75" ry="14.01" transform="translate(-30.91 808.28) rotate(-49.43)"/><path class="cls-31" d="M994.5,454.5l-4,37,10,44,24,60-1,8,7,18s8,6,1-10l11,6s13-7-6-24l-24-90-6-52Z"/><polygon class="cls-31" points="905.5 622.5 924.5 905.5 898.5 922.5 903.5 926.5 942.5 912.5 949.5 610.5 905.5 622.5"/><polygon class="cls-31" points="959.5 610.5 966.5 910.5 1005.5 926.5 1010.5 920.5 985.5 907.5 1003.5 612.5 959.5 610.5"/><path class="cls-32" d="M931.5,401.5l-17,9s-8,5-8,12l-7,29,16,3,5,42s-40,95-35,136h140s0-60-35-141l4-37,14-3-5-26s2-12-8-12l-24-16Z"/><path class="cls-33" d="M943.5,397.5s-15,7-12,23c0,0,3,14,18,7l6-5,5,7s16,3,18-9c0,0,3-14-11-23Z"/><path class="cls-34" d="M898.5,922.5s-19,10-5,13l51-17v-6Z"/><path class="cls-34" d="M966.5,910.5v8l48,17s12,4,4-9l-8-7Z"/></g><g id="Layer_11" data-name="Layer 11"><path class="cls-26" d="M657.92,566.77l-4.07-2s-4.06-.67-4.74,6.11L620,670.5s-1.35,4.07,5.43,6.78c0,0-1.36-6.1-.68-8.14s0,2,0,2Z"/><path class="cls-27" d="M678.26,583.72,658.6,567.45s-3.39-1.36-4.07,4.06L624.7,671.18s-2,8.81,4.75,6.1l21.69-2s3.39-.68,4.07-6.78l23-80S680.3,585.07,678.26,583.72Z"/><path class="cls-35" d="M472.83,505.75s-4.07,24.41,24.41,50.17v17.63s18.3,28.47,33.9,0v-8.82s27.8-.67,42.71-38l3.39-73.23H496.56l-10.17-3.39L485,480s-10.17-16.95-22.38,0C462.66,480,449.78,498.29,472.83,505.75Z"/><path class="cls-36" d="M532.07,465.41s-22.63,14.24-45.25,14.24c0,0-15.08-20.34-26.74,8.13,0,0-2.06,18.31,14.4,17.63,0,0-2.74,33.9,24.68,51.53v16.27l-17.14,42-40.45-31.86s-20.57-133.56,0-151.87c0,0,37.67-40.64,74.68-7.51a.07.07,0,0,0,.1,0c1.19-1.14,23.75-22.3,45.07-.09a.75.75,0,0,0,.3.2c2.57.9,32.71,12.17,32.06,43.33C593.78,467.44,569.78,488.46,532.07,465.41Z"/><path class="cls-37" d="M540.9,574.56S546.57,766,569.26,760.31L586.48,763s-1.71-178.51-32.15-179.58Z"/><path class="cls-38" d="M479.33,573.89s15.15,1.35,8.48,24.4c0,0-27.87,12.89-24.84,56.28l-5.46,99.66h94.54L566,618.63s-6.06-41.35-19.39-44.74L515.69,616.6Z"/><path class="cls-37" d="M478.75,573.54s-42.51,4.21-43.42,75c0,0-.85,38.85,54.49,58.06,0,0,43.92,12.68,85.92-13.95,0,0,43-30.79,51.53-43.06L611.79,627.1s-44.6,44.53-66.84,47.06c0,0-62,15.36-71.06-11.78,0,0-8.78-15.59-8.61-21.73,0,0-1.68-28.43,24.9-44.25C490.18,596.4,495.86,574.84,478.75,573.54Z"/><path class="cls-35" d="M609.78,649.48s-13.55-29.83,12.89-42.71c0,0,29.83-10.17,38.64,5.42,0,0,.68,8.14-10.17,10.85,0,0,8.14,45.43-31.86,35.93Z"/><path class="cls-39" d="M578.34,754.44l70.51-.93s19,5.17,20,23.47l77.43,163.74s-5.21,16.34-33.62,21.46L633.16,797.79l-30.51.4-3.07-27.08Z"/><path class="cls-40" d="M564.36,751.18H458.59s-11.52,33.9,24.41,44.75h83.39l28.48,164.75s12.2,8.13,39.32,0L607.07,775.59S609.11,747.79,564.36,751.18Z"/><path class="cls-37" d="M632.16,955.25s-4.07-.67-6.1,7.46c0,0-14.92,4.07-25.77-1.36,0,0-8.81-2.71-8.81,4.75v29.15s0,4.75,6.1,4.75h90.85s9.49-4.07,0-22.37Z"/><path class="cls-37" d="M743.7,946.22s-2.38,25.12-29.58,19.37l14.59,26.93s4.12,3.34,15.55-3.59L817,950s.45-17-13.8-18.12l-55.54,4.8S742.21,936.07,743.7,946.22Z"/><path class="cls-41" d="M626.06,962.71s-16.28,21-34.58,3.39c0,0,.68-8.14,7.46-4.75C598.94,961.35,613.17,967.46,626.06,962.71Z"/><ellipse class="cls-42" cx="666.81" cy="972.56" rx="5.13" ry="0.85" transform="translate(-488.93 1206.63) rotate(-67.01)"/><ellipse class="cls-42" cx="786.14" cy="935.7" rx="0.85" ry="5.13"/><ellipse class="cls-42" cx="778" cy="937.38" rx="0.85" ry="5.13"/><ellipse class="cls-42" cx="771.22" cy="938.05" rx="0.85" ry="5.13"/><ellipse class="cls-42" cx="763.09" cy="938.73" rx="0.85" ry="5.13"/><ellipse class="cls-42" cx="756.31" cy="938.41" rx="0.85" ry="5.13"/><ellipse class="cls-42" cx="660.03" cy="969.85" rx="5.13" ry="0.85" transform="matrix(0.39, -0.92, 0.92, 0.39, -490.56, 1198.73)"/><ellipse class="cls-42" cx="653.25" cy="967.14" rx="5.13" ry="0.85" transform="translate(-492.2 1190.84) rotate(-67.01)"/><ellipse class="cls-42" cx="646.47" cy="964.43" rx="5.13" ry="0.85" transform="translate(-493.83 1182.95) rotate(-67.01)"/><ellipse class="cls-42" cx="639.01" cy="962.39" rx="5.13" ry="0.85" transform="translate(-496.51 1174.84) rotate(-67.01)"/><rect class="cls-41" x="591.48" y="993.9" width="99.66" height="6.1" rx="2.8" ry="2.8" transform="translate(1282.62 1993.9) rotate(180)"/><rect class="cls-41" x="728.01" y="969.63" width="95.76" height="6.1" rx="2.8" ry="2.8" transform="translate(1913.96 1475.6) rotate(152.42)"/><path class="cls-41" d="M743.7,946.22s-16.08,14.45-24.28,9.81c0,0-8.08,4.18-5.3,9.56C714.12,965.59,739.31,973.4,743.7,946.22Z"/><polygon class="cls-35" points="487.34 586.35 516.5 623.38 548.36 574.57 530.06 574.57 496.16 574.57 480.56 574.57 487.34 586.35"/></g><g id="Layer_12" data-name="Layer 12"><path class="cls-43" d="M1546,509.16s16-14,36.89-40.87c0,0,49.85,35.89,91.72,33.89,0,0,13,33.9-16.95,69.79,0,0,26.92-1,42.87-62.81,0,0,5-85.74-50.84-102.68,0,0-37.89-26.92-76.77,8,0,0-49.85,17.95-42.87,64.8,0,0-17,63.81,32.9,96.71Z"/><path class="cls-44" d="M1578.87,406.48s-30.9-21.94,11-36.89c0,0,11-11,48.85,0,0,0,27.91,10,11,36.89Z"/><path class="cls-45" d="M1546,508.17l33.9-38.88,96.7,33.89,3,13s14-13,16,5c0,0,3,17-12,11,0,0-4,43.87-70.78,57.83,0,0-53.84-4-70.79-54.84,0,0-16,1-14-18.94,0,0,6-13,17.94,0Z"/><polygon class="cls-45" points="1592.83 575.96 1595.82 610.85 1630.71 610.85 1630.71 579.95 1592.83 575.96"/><path class="cls-45" d="M1589.84,611.85s-43.87-8-39.88,55.83c0,0-21.93,126.61-15,134.59,0,0-15,5-14,22.93,0,0,0,20.94,20.93,12v-12l8,14s6-3-2-23.93l-2-15,26.92-146.56Z"/><polygon class="cls-45" points="1589.34 611.35 1611.27 600.38 1633.21 609.36 1638.19 643.25 1613.27 680.14 1582.36 638.27 1589.34 611.35"/><path class="cls-46" d="M1588.84,612.35l-7,26.8s28.91,14.89,29.91,36.73c0,0,14-33.75,25.92-31.77l-4-31.76,13,31.76s8,21.84,0,40.7v28.78c-1.36-2.91,12.67,43.29,12,50.63,0,0,4,59.55,16.95,164.77,0,0-53.84,53.6-126.62,0l15-161.8s4-29.77,12-53.6l1-33.74-5-25.81Z"/><path class="cls-45" d="M1572.89,856.11l10,172.47-27.92,14s-13,9,17,12l31.91-7V856.11Z"/><path class="cls-45" d="M1612.77,856.11l11,190.41,47.86,5s22.93-10,0-11l-23.93-10-6-174.46Z"/><path class="cls-27" d="M1539.24,571.14l16.17-13.38s2.78-1.12,3.34,3.34l24.53,82s1.67,7.25-3.9,5l-17.84-1.68s-2.79-.55-3.35-5.57l-19-65.79S1537.57,572.25,1539.24,571.14Z"/><path class="cls-45" d="M1632.21,609.36s27.91-7,33.9,7c0,0-6,66.79-28.92,73.77l-91.72-71.78s-13-20.94,9-14l8,5-2-10s5-7,8,10v7.34l61.81,49.48,16-26.91Z"/><path class="cls-29" d="M1571.73,1034.62s-20.59-4.15-28.63,9.47c0,0,2.89,10.33,26.09,12,0,0,18.37,1.63,29.11-2.84,0,0,4-1.58,5.32-8Z"/><path class="cls-29" d="M1623.36,1043a5.34,5.34,0,0,0,3.37,6.57s16.08,7.44,31.76,4.93c0,0,23.15-.8,25-10.06,0,0-2.26-9.92-28.78-12Z"/></g></svg>
