<svg id="Layer_1" data-name="Layer 1" xmlns="http://www.w3.org/2000/svg" xmlns:xlink="http://www.w3.org/1999/xlink" width="2220" height="1269" viewBox="0 0 2220 1269"><defs><style>.cls-1{fill:url(#linear-gradient);}.cls-2{fill:url(#linear-gradient-2);}.cls-3{fill:#fcfbfb;}.cls-4{fill:#f5bff0;}.cls-5{fill:url(#linear-gradient-3);}.cls-6{fill:#f8fdf8;}.cls-7{fill:url(#linear-gradient-4);}.cls-8{fill:#eedef0;}.cls-18,.cls-26,.cls-9{fill:none;}.cls-9{stroke:#a77655;}.cls-18,.cls-19,.cls-20,.cls-21,.cls-26,.cls-9{stroke-miterlimit:10;}.cls-26,.cls-9{stroke-width:9px;}.cls-10{fill:#0b0311;}.cls-11{fill:#a77655;}.cls-12{fill:#a7693f;}.cls-13{fill:#a73a50;}.cls-14{fill:#a74b67;}.cls-15{fill:#f9e3cc;}.cls-16{fill:#cfa9a1;}.cls-17{fill:#cf8f82;}.cls-18,.cls-19,.cls-20,.cls-21{stroke:#0c040e;}.cls-18{stroke-width:12px;}.cls-19{fill:#f5f8f4;stroke-width:4px;}.cls-20{fill:#f6f8f5;}.cls-20,.cls-21{stroke-width:3px;}.cls-21{fill:#f7faf6;}.cls-22{fill:#6b461f;}.cls-23{fill:#2b2917;}.cls-24{fill:#95b374;}.cls-25{fill:#95bb60;}.cls-26{stroke:#000;}.cls-27{fill:#fcdb43;}</style><linearGradient id="linear-gradient" x1="545.3" y1="548.42" x2="1814.3" y2="548.42" gradientTransform="matrix(0, -1, -1.65, 0, 1973.72, 1814.3)" gradientUnits="userSpaceOnUse"><stop offset="0" stop-color="#cce0f4"/><stop offset="0.06" stop-color="#c3dcf2"/><stop offset="0.17" stop-color="#a9d2ee"/><stop offset="0.31" stop-color="#80c2e7"/><stop offset="0.46" stop-color="#47acde"/><stop offset="0.57" stop-color="#1e9cd7"/><stop offset="0.87" stop-color="#0075be"/><stop offset="0.99" stop-color="#005b97"/></linearGradient><linearGradient id="linear-gradient-2" x1="979.82" y1="-90" x2="979.82" y2="1179" gradientTransform="matrix(1, 0, 0, -1, 0, 1080)" gradientUnits="userSpaceOnUse"><stop offset="0" stop-color="#fff"/><stop offset="1"/></linearGradient><linearGradient id="linear-gradient-3" x1="-89" y1="94" x2="1974" y2="94" xlink:href="#linear-gradient-2"/><linearGradient id="linear-gradient-4" x1="-54" y1="236" x2="1973" y2="236" xlink:href="#linear-gradient-2"/></defs><title>scene4-fuldskaerm</title><g id="baggrund"><rect class="cls-1" x="36.01" width="2065.63" height="1269"/><path class="cls-2" d="M2011.64-98V1169H-52V-98H2011.64m1-1H-53V1170H2012.64Z" transform="translate(89 99)"/></g><g id="vægge"><rect class="cls-3" x="1570" y="186" width="350" height="11"/><rect class="cls-3" x="1569" y="685" width="350" height="38"/><rect class="cls-3" x="1568" y="188" width="26" height="539"/><rect class="cls-3" x="1895" y="188" width="26" height="539"/><rect class="cls-4" y="972" width="2063" height="226"/><path class="cls-5" d="M1973,874v224H-88V874H1973m1-1H-89v226H1974Z" transform="translate(89 99)"/><rect class="cls-6" x="35" y="906" width="2027" height="74"/><path class="cls-7" d="M1972,808v72H-53V808H1972m1-1H-54v74H1973Z" transform="translate(89 99)"/><path class="cls-8" d="M-89-53V851H2131V-53ZM1830,622.89H1480V87h350Z" transform="translate(89 99)"/></g><g id="seng"><line class="cls-9" x1="133" y1="919" x2="97" y2="1009"/><line class="cls-9" x1="206.5" y1="915.5" x2="242" y2="1006"/><rect class="cls-10" x="89" y="893" width="177" height="28"/><path class="cls-11" d="M161,888.19l-53.3,46v63H1067v-63l-33.92-31.49v26.65L160.92,927a10.27,10.27,0,0,1-9.56-14Z" transform="translate(89 99)"/><rect class="cls-12" x="318.81" y="1096.21" width="12.11" height="84.79"/><rect class="cls-12" x="1014.07" y="1096.21" width="12.11" height="84.79"/><rect class="cls-11" x="270.36" y="1096.21" width="53.3" height="84.79"/><rect class="cls-11" x="1018.91" y="1096.21" width="55.72" height="84.79"/><rect class="cls-13" x="239.84" y="926.63" width="881.82" height="101.75"/><polygon class="cls-14" points="359.97 817.61 238.84 926.63 1120.66 926.63 1004.38 817.61 359.97 817.61"/><rect class="cls-15" x="326.05" y="602" width="704.97" height="264.06" rx="12" ry="12"/><rect class="cls-16" x="352.7" y="630.69" width="654.1" height="205.92" rx="12" ry="12"/><circle class="cls-17" cx="451.5" cy="725.5" r="18.5"/><circle class="cls-17" cx="893.5" cy="725.5" r="18.5"/><line class="cls-18" x1="191.5" y1="271.5" x2="482.5" y2="271.5"/><line class="cls-18" x1="855" y1="272" x2="1146" y2="272"/><line class="cls-18" x1="503.5" y1="328.5" x2="822.5" y2="328.5"/><rect class="cls-19" x="934" y="151" width="67" height="120"/><rect class="cls-20" x="224.5" y="189.11" width="46" height="82.39"/><rect class="cls-21" x="291.5" y="151.5" width="67" height="120"/></g><g id="plante"><ellipse class="cls-22" cx="569.26" cy="281.74" rx="21.06" ry="3.55"/><path class="cls-23" d="M458.3,185.49l6.87,39.95a2,2,0,0,0,1.23,1.5c3.62,1.38,16.07,5.36,27.82,0a2,2,0,0,0,1.1-1.48l6-40.11a2,2,0,0,0-2.34-2.21c-6.25,1.32-22.15,3.89-38.34.09a2,2,0,0,0-2.33,1.61A2,2,0,0,0,458.3,185.49Z" transform="translate(89 99)"/><path class="cls-24" d="M478.42,177.78h.1a2,2,0,0,0,2-2c-.08-6.76-.6-28.9-3.92-35.74a1.88,1.88,0,0,1-.11-1.34c1.73-6.33,12.39-51.78-32.14-69.71a2,2,0,0,0-2.58,1.16,1.91,1.91,0,0,0-.13.62c-.19,11.19.86,53.17,26.44,70l.27.16c1.16.52,11,5.82,8.16,34.7a2,2,0,0,0,1.84,2.15Z" transform="translate(89 99)"/><path class="cls-25" d="M417.45,80.13c16.13,8.79,72.91,41.85,52.37,61.6a2,2,0,0,0-.35,2.37c2.12,3.78,7.91,15.6,10.74,36.16a2,2,0,0,1-1.73,2.23l-.22,0h-2.71a2,2,0,0,1-2-1.85c-.36-6.16-1.8-25.95-5.77-31.54a1.89,1.89,0,0,0-1.3-.76c-5-.72-34-7.37-51.89-65.92a2,2,0,0,1,2.86-2.31Z" transform="translate(89 99)"/><path class="cls-24" d="M469.32,181.79h.24a2,2,0,0,0,1.79-2c0-3.63-.54-12-4.16-18.78a1.9,1.9,0,0,1-.14-1.53c1.12-3.47,4.73-17.47-8.8-21.79a2.06,2.06,0,0,1-.77-.45c-1.16-1.1-5.92-4.78-17.76-5.68a2,2,0,0,0-2.15,1.83,1.93,1.93,0,0,0,.15,1c3.08,6.72,11.54,22.82,23.17,26.22a1.93,1.93,0,0,1,1.05.72c1.53,2.06,6.66,9.75,5.23,18.22a2,2,0,0,0,1.68,2.28A2.46,2.46,0,0,0,469.32,181.79Z" transform="translate(89 99)"/><path class="cls-25" d="M482,101.43c5.84,6.8,25.2,31.37.62,32.32a2,2,0,0,0-1.91,2.09.22.22,0,0,1,0,.08c.75,6.9,2.79,29,0,45.91a2,2,0,0,1-1.94,1.62h-1a2,2,0,0,1-1.83-2.16A2.93,2.93,0,0,1,476,181a100.16,100.16,0,0,0-.36-46.07,2,2,0,0,0-1.38-1.42c-3.9-1.11-15.9-6.76,4.81-32a2,2,0,0,1,2.82-.18A.52.52,0,0,1,482,101.43Z" transform="translate(89 99)"/><path class="cls-24" d="M481,166.89l4.41-11.51a2,2,0,0,0,0-1.5c-1.64-3.85-7-23.09,34.63-48a2,2,0,0,1,2.84,2.43c-6,14.64-23.3,54.13-31.14,48.58a1.93,1.93,0,0,0-2.67.58,2,2,0,0,0-.2.42c-.94,2.64-2.42,6.53-4.21,10.5a2,2,0,0,1-3.66-1.5Z" transform="translate(89 99)"/><path class="cls-25" d="M551,110.59s-44.84-2.36-54.38,24.5l-.06.2-11.58,45a2,2,0,0,0,1.49,2.4,2,2,0,0,0,.59.05l.74-.07a2,2,0,0,0,1.78-1.82c.42-6.13,2.56-27.92,12.54-42.86a2,2,0,0,1,1.52-.86c3.12-.13,15.1-2.53,47.36-26.53" transform="translate(89 99)"/><ellipse class="cls-22" cx="1857.98" cy="632.06" rx="36.62" ry="6.17"/><path class="cls-23" d="M1730.79,537.84l12,69.47a3.36,3.36,0,0,0,2.13,2.61c6.3,2.4,28,9.33,48.38.05a3.37,3.37,0,0,0,1.92-2.59l10.5-69.74a3.39,3.39,0,0,0-2.83-3.88,3.24,3.24,0,0,0-1.24,0c-10.86,2.3-38.51,6.76-66.68.16a3.4,3.4,0,0,0-4.13,2.46A3.45,3.45,0,0,0,1730.79,537.84Z" transform="translate(89 99)"/><path class="cls-24" d="M1765.78,524.42h.17a3.4,3.4,0,0,0,3.41-3.39v0c-.14-11.77-1-50.27-6.81-62.16a3.35,3.35,0,0,1-.2-2.33c3-11,21.55-90.06-55.88-121.24a3.43,3.43,0,0,0-4.47,1.89,3.31,3.31,0,0,0-.25,1.21c-.33,19.47,1.49,92.47,46,121.71a3.1,3.1,0,0,0,.47.26c2,.91,19.16,10.13,14.2,60.35a3.4,3.4,0,0,0,3,3.73Z" transform="translate(89 99)"/><path class="cls-25" d="M1659.74,354.62c28.06,15.28,126.8,72.77,91.09,107.12a3.4,3.4,0,0,0-.62,4.12c3.68,6.57,13.76,27.14,18.67,62.89a3.43,3.43,0,0,1-2.91,3.87,3.59,3.59,0,0,1-.47,0h-4.71a3.42,3.42,0,0,1-3.41-3.2c-.62-10.72-3.13-45.15-10-54.86a3.37,3.37,0,0,0-2.26-1.33c-8.63-1.24-59.14-12.8-90.23-114.63a3.42,3.42,0,0,1,4.85-4Z" transform="translate(89 99)"/><path class="cls-24" d="M1750,531.41h.41a3.41,3.41,0,0,0,3.12-3.43c-.06-6.3-.94-20.87-7.23-32.66a3.43,3.43,0,0,1-.25-2.66c2-6,8.23-30.38-15.29-37.89a3.5,3.5,0,0,1-1.34-.79c-2-1.9-10.3-8.31-30.9-9.87a3.43,3.43,0,0,0-3.69,3.15,3.51,3.51,0,0,0,.3,1.69c5.35,11.67,20.07,39.68,40.3,45.59a3.48,3.48,0,0,1,1.82,1.25c2.67,3.59,11.59,17,9.1,31.68a3.4,3.4,0,0,0,2.8,3.91A4,4,0,0,0,1750,531.41Z" transform="translate(89 99)"/><path class="cls-25" d="M1772.05,391.65c10.16,11.83,43.83,54.56,1.08,56.21a3.42,3.42,0,0,0-3.32,3.5,2.45,2.45,0,0,0,0,.27c1.31,12,4.84,50.49.05,79.84a3.4,3.4,0,0,1-3.37,2.83h-1.71a3.42,3.42,0,0,1-3.42-3.42,3.66,3.66,0,0,1,.1-.81c2.7-11.06,8.57-42.64-.62-80.12a3.45,3.45,0,0,0-2.41-2.48c-6.78-1.92-27.64-11.75,8.36-55.73a3.4,3.4,0,0,1,5.24-.09Z" transform="translate(89 99)"/><path class="cls-24" d="M1770.25,505.49l7.66-20a3.47,3.47,0,0,0-.06-2.61c-2.86-6.7-12.21-40.16,60.23-83.46a3.43,3.43,0,0,1,4.93,4.23c-10.52,25.46-40.52,94.14-54.16,84.48a3.34,3.34,0,0,0-4.62,1,3.38,3.38,0,0,0-.38.79c-1.64,4.58-4.21,11.36-7.33,18.26C1774.72,512.16,1768.67,509.6,1770.25,505.49Z" transform="translate(89 99)"/><path class="cls-25" d="M1892,407.57s-78-4.1-94.57,42.62c0,.12-.08.24-.11.36l-20.14,78.23a3.43,3.43,0,0,0,2.46,4.17,3.49,3.49,0,0,0,1.16.09l1.29-.12a3.42,3.42,0,0,0,3.1-3.16c.72-10.67,4.45-48.56,21.81-74.54a3.34,3.34,0,0,1,2.63-1.49c5.43-.23,26.26-4.42,82.37-46.16" transform="translate(89 99)"/><line class="cls-26" x1="1300" y1="560" x2="1300" y2="1020"/><polygon class="cls-27" points="1230.5 426 1385.5 427 1462.5 616 1143.5 616 1230.5 426"/><rect class="cls-10" x="1199" y="1020" width="201" height="9"/></g></svg>
