<svg xmlns="http://www.w3.org/2000/svg" xmlns:xlink="http://www.w3.org/1999/xlink" width="1920" height="1080" viewBox="0 0 1920 1080"><defs><style>.cls-1{fill:url(#Sky);}.cls-2{fill:url(#linear-gradient);}.cls-3{fill:#fcfbfb;}.cls-4{fill:#f5bff0;}.cls-5{fill:url(#linear-gradient-2);}.cls-6{fill:#f8fdf8;}.cls-7{fill:url(#linear-gradient-3);}.cls-8{fill:#eedef0;}.cls-11,.cls-9{fill:#a77655;}.cls-9{stroke:#a77655;}.cls-18,.cls-19,.cls-20,.cls-21,.cls-26,.cls-9{stroke-miterlimit:10;}.cls-26,.cls-9{stroke-width:9px;}.cls-10{fill:#0b0311;}.cls-12{fill:#a7693f;}.cls-13{fill:#a73a50;}.cls-14{fill:#a74b67;}.cls-15{fill:#f9e3cc;}.cls-16{fill:#cfa9a1;}.cls-17{fill:#cf8f82;}.cls-18{fill:none;stroke-width:12px;}.cls-18,.cls-19,.cls-20,.cls-21{stroke:#0c040e;}.cls-19{fill:#f5f8f4;stroke-width:4px;}.cls-20{fill:#f6f8f5;}.cls-20,.cls-21{stroke-width:3px;}.cls-21{fill:#f7faf6;}.cls-22{fill:#6b461f;}.cls-23{fill:#2b2917;}.cls-24{fill:#95b374;}.cls-25{fill:#95bb60;}.cls-26{fill:#060813;stroke:#000;}.cls-27{fill:#fcdb43;}</style><linearGradient id="Sky" x1="295.3" y1="537.3" x2="1564.3" y2="537.3" gradientTransform="matrix(0, -1, 1.65, 0, 91.22, 1465.3)" gradientUnits="userSpaceOnUse"><stop offset="0" stop-color="#cce0f4"/><stop offset="0.06" stop-color="#c3dcf2"/><stop offset="0.17" stop-color="#a9d2ee"/><stop offset="0.31" stop-color="#80c2e7"/><stop offset="0.46" stop-color="#47acde"/><stop offset="0.57" stop-color="#1e9cd7"/><stop offset="0.87" stop-color="#0075be"/><stop offset="0.99" stop-color="#005b97"/></linearGradient><linearGradient id="linear-gradient" x1="979.82" y1="1170" x2="979.82" y2="-99" gradientUnits="userSpaceOnUse"><stop offset="0" stop-color="#fff"/><stop offset="1"/></linearGradient><linearGradient id="linear-gradient-2" x1="-89" y1="986" x2="1974" y2="986" xlink:href="#linear-gradient"/><linearGradient id="linear-gradient-3" x1="-54" y1="844" x2="1973" y2="844" xlink:href="#linear-gradient"/></defs><title>scene4</title><g id="baggrund"><rect class="cls-1" x="-52.99" y="-99" width="2065.63" height="1269"/><path class="cls-2" d="M2011.64-98V1169H-52V-98H2011.64m1-1H-53V1170H2012.64V-99Z"/></g><g id="vægge"><rect class="cls-3" x="1481" y="87" width="350" height="11"/><rect class="cls-3" x="1480" y="586" width="350" height="38"/><rect class="cls-3" x="1479" y="89" width="26" height="539"/><rect class="cls-3" x="1806" y="89" width="26" height="539"/><rect class="cls-4" x="-89" y="873" width="2063" height="226"/><path class="cls-5" d="M1973,874v224H-88V874H1973m1-1H-89v226H1974V873Z"/><rect class="cls-6" x="-54" y="807" width="2027" height="74"/><path class="cls-7" d="M1972,808v72H-53V808H1972m1-1H-54v74H1973V807Z"/><path class="cls-8" d="M-89-53V851H2131V-53ZM1830,622.89H1480V87h350Z"/></g><g id="seng"><line class="cls-9" x1="44" y1="820" x2="8" y2="910"/><line class="cls-9" x1="117.5" y1="816.5" x2="153" y2="907"/><rect class="cls-10" y="794" width="177" height="28"/><path class="cls-11" d="M161,888.19l-53.3,46v63H1067v-63l-33.92-31.49v26.65L160.92,927a10.27,10.27,0,0,1-9.56-14Z"/><rect class="cls-12" x="229.81" y="997.21" width="12.11" height="84.79"/><rect class="cls-12" x="925.07" y="997.21" width="12.11" height="84.79"/><rect class="cls-11" x="181.36" y="997.21" width="53.3" height="84.79"/><rect class="cls-11" x="929.91" y="997.21" width="55.72" height="84.79"/><rect class="cls-13" x="150.84" y="827.63" width="881.82" height="101.75"/><polygon class="cls-14" points="270.97 718.61 149.84 827.63 1031.66 827.63 915.38 718.61 270.97 718.61"/><rect class="cls-15" x="237.05" y="503" width="704.97" height="264.06" rx="12" ry="12"/><rect class="cls-16" x="263.7" y="531.69" width="654.1" height="205.92" rx="12" ry="12"/><circle class="cls-17" cx="362.5" cy="626.5" r="18.5"/><circle class="cls-17" cx="804.5" cy="626.5" r="18.5"/><line class="cls-18" x1="102.5" y1="172.5" x2="393.5" y2="172.5"/><line class="cls-18" x1="766" y1="173" x2="1057" y2="173"/><line class="cls-18" x1="414.5" y1="229.5" x2="733.5" y2="229.5"/><rect class="cls-19" x="845" y="52" width="67" height="120"/><rect class="cls-20" x="135.5" y="90.11" width="46" height="82.39"/><rect class="cls-21" x="202.5" y="52.5" width="67" height="120"/></g><g id="plante"><ellipse class="cls-22" cx="480.26" cy="182.74" rx="21.06" ry="3.55"/><path class="cls-23" d="M458.3,185.49l6.87,39.95a2,2,0,0,0,1.23,1.5c3.62,1.38,16.07,5.36,27.82,0a2,2,0,0,0,1.1-1.48l6-40.11a2,2,0,0,0-2.34-2.21c-6.25,1.32-22.15,3.89-38.34.09A2,2,0,0,0,458.3,185.49Z"/><path class="cls-24" d="M478.42,177.78h.1a2,2,0,0,0,2-2c-.08-6.76-.6-28.9-3.92-35.74a1.93,1.93,0,0,1-.11-1.34c1.73-6.33,12.39-51.78-32.14-69.71a2,2,0,0,0-2.71,1.78c-.19,11.19.86,53.17,26.44,70a1.75,1.75,0,0,0,.27.16c1.16.52,11,5.82,8.16,34.7A2,2,0,0,0,478.42,177.78Z"/><path class="cls-25" d="M417.45,80.13c16.13,8.79,72.91,41.85,52.37,61.6a2,2,0,0,0-.35,2.37c2.12,3.78,7.91,15.6,10.74,36.16a2,2,0,0,1-1.95,2.25h-2.71a2,2,0,0,1-2-1.85c-.36-6.16-1.8-25.95-5.77-31.54a1.89,1.89,0,0,0-1.3-.76c-5-.72-34-7.37-51.89-65.92A2,2,0,0,1,417.45,80.13Z"/><path class="cls-24" d="M469.32,181.79l.24,0a2,2,0,0,0,1.79-2c0-3.63-.54-12-4.16-18.78a1.94,1.94,0,0,1-.14-1.53c1.12-3.47,4.73-17.47-8.8-21.79a2.14,2.14,0,0,1-.77-.45c-1.16-1.1-5.92-4.78-17.76-5.68a2,2,0,0,0-2,2.78c3.08,6.72,11.54,22.82,23.17,26.22a1.93,1.93,0,0,1,1.05.72c1.53,2.06,6.66,9.75,5.23,18.22A2,2,0,0,0,469.32,181.79Z"/><path class="cls-25" d="M482,101.43c5.84,6.8,25.2,31.37.62,32.32a2,2,0,0,0-1.9,2.17c.75,6.9,2.79,29,0,45.91a2,2,0,0,1-1.94,1.62h-1A2,2,0,0,1,476,181a100.2,100.2,0,0,0-.36-46.07,2,2,0,0,0-1.38-1.42c-3.9-1.11-15.9-6.76,4.81-32A2,2,0,0,1,482,101.43Z"/><path class="cls-24" d="M481,166.89l4.41-11.51a2,2,0,0,0,0-1.5c-1.64-3.85-7-23.09,34.63-48a2,2,0,0,1,2.84,2.43c-6.05,14.64-23.3,54.13-31.14,48.58a1.93,1.93,0,0,0-2.87,1c-.94,2.64-2.42,6.53-4.21,10.5A2,2,0,0,1,481,166.89Z"/><path class="cls-25" d="M551,110.59s-44.84-2.36-54.38,24.5l-.06.2-11.58,45a2,2,0,0,0,2.08,2.45l.74-.07a2,2,0,0,0,1.78-1.82c.42-6.13,2.56-27.92,12.54-42.86a2,2,0,0,1,1.52-.86c3.12-.13,15.1-2.53,47.36-26.53"/><ellipse class="cls-22" cx="1768.98" cy="533.06" rx="36.62" ry="6.17"/><path class="cls-23" d="M1730.79,537.84l12,69.47a3.37,3.37,0,0,0,2.13,2.61c6.3,2.4,28,9.33,48.38.05a3.39,3.39,0,0,0,1.92-2.59l10.5-69.74a3.4,3.4,0,0,0-4.07-3.85c-10.86,2.3-38.51,6.76-66.68.16A3.4,3.4,0,0,0,1730.79,537.84Z"/><path class="cls-24" d="M1765.78,524.42h.17a3.4,3.4,0,0,0,3.41-3.44c-.14-11.77-1-50.27-6.81-62.16a3.35,3.35,0,0,1-.2-2.33c3-11,21.55-90.06-55.88-121.24a3.43,3.43,0,0,0-4.72,3.1c-.33,19.47,1.49,92.47,46,121.71a3.1,3.1,0,0,0,.47.26c2,.91,19.16,10.13,14.2,60.35A3.41,3.41,0,0,0,1765.78,524.42Z"/><path class="cls-25" d="M1659.74,354.62c28.06,15.28,126.8,72.77,91.09,107.12a3.4,3.4,0,0,0-.62,4.12c3.68,6.57,13.76,27.14,18.67,62.89a3.42,3.42,0,0,1-3.38,3.9h-4.71a3.41,3.41,0,0,1-3.41-3.2c-.62-10.72-3.13-45.15-10-54.86a3.35,3.35,0,0,0-2.26-1.33c-8.63-1.24-59.14-12.8-90.23-114.63A3.42,3.42,0,0,1,1659.74,354.62Z"/><path class="cls-24" d="M1750,531.41l.41,0a3.41,3.41,0,0,0,3.12-3.43c-.06-6.3-.94-20.87-7.23-32.66a3.39,3.39,0,0,1-.25-2.66c2-6,8.23-30.38-15.29-37.89a3.5,3.5,0,0,1-1.34-.79c-2-1.9-10.3-8.31-30.9-9.87a3.43,3.43,0,0,0-3.39,4.84c5.35,11.67,20.07,39.68,40.3,45.59a3.48,3.48,0,0,1,1.82,1.25c2.67,3.59,11.59,17,9.1,31.68A3.4,3.4,0,0,0,1750,531.41Z"/><path class="cls-25" d="M1772.05,391.65c10.16,11.83,43.83,54.56,1.08,56.21a3.41,3.41,0,0,0-3.3,3.77c1.31,12,4.84,50.49.05,79.84a3.39,3.39,0,0,1-3.37,2.83h-1.71a3.42,3.42,0,0,1-3.32-4.23c2.7-11.06,8.57-42.64-.62-80.12a3.45,3.45,0,0,0-2.41-2.48c-6.78-1.92-27.64-11.75,8.36-55.73A3.42,3.42,0,0,1,1772.05,391.65Z"/><path class="cls-24" d="M1770.25,505.49l7.66-20a3.47,3.47,0,0,0-.06-2.61c-2.86-6.7-12.21-40.16,60.23-83.46a3.43,3.43,0,0,1,4.93,4.23c-10.52,25.46-40.52,94.14-54.16,84.48a3.34,3.34,0,0,0-5,1.76c-1.64,4.58-4.21,11.36-7.33,18.26C1774.72,512.16,1768.67,509.6,1770.25,505.49Z"/><path class="cls-25" d="M1892,407.57s-78-4.1-94.57,42.62a3.07,3.07,0,0,0-.11.36l-20.14,78.23a3.42,3.42,0,0,0,3.62,4.26l1.29-.12a3.42,3.42,0,0,0,3.1-3.16c.72-10.67,4.45-48.56,21.81-74.54a3.32,3.32,0,0,1,2.63-1.49c5.43-.23,26.26-4.42,82.37-46.16"/><line class="cls-26" x1="1211" y1="461" x2="1211" y2="921"/><polygon class="cls-27" points="1141.5 327 1296.5 328 1373.5 517 1054.5 517 1141.5 327"/><rect class="cls-10" x="1110" y="921" width="201" height="9"/></g></svg>
