<svg xmlns="http://www.w3.org/2000/svg" width="1920" height="1080" viewBox="0 0 1920 1080"><defs><style>.cls-1{fill:#2b4961;}.cls-2{fill:#fff;stroke:#000;stroke-miterlimit:10;}.cls-3{fill:#2b303b;}.cls-4{fill:#6b461f;}.cls-5{fill:#2b2917;}.cls-6{fill:#95b374;}.cls-7{fill:#95bb60;}.cls-8{fill:#ed6608;}.cls-9{fill:#ed861b;}.cls-10{fill:#edac2a;}.cls-11{fill:#c18563;}.cls-12{fill:#edf5e1;}.cls-13{fill:#ede7ba;}</style></defs><title>scene2</title><g id="baggrund"><rect class="cls-1" x="-92.5" y="-45.5" width="2065" height="894.5"/><rect class="cls-2" x="-76.5" y="763.5" width="2035" height="140.47"/><rect class="cls-3" x="-76.5" y="815.38" width="2035" height="305.62"/></g><g id="sofa"><g id="Layer_6" data-name="Layer 6"><ellipse class="cls-4" cx="1197.52" cy="646.38" rx="122.18" ry="20.59"/><path class="cls-5" d="M1067.1,645,1111,900.36s90.61,41.19,173,0L1322.45,645S1193.4,680.71,1067.1,645Z"/><path class="cls-6" d="M1174.18,617.55h24.71s0-181.21-24.71-222.4c0,0,96.1-307.52-200.44-414.6,0,0-19.22,310.27,153.76,422.84C1127.5,403.39,1196.14,428.1,1174.18,617.55Z"/><path class="cls-7" d="M809,38.21s480.5,244.37,321.25,376.16c0,0,49.42,74.14,68.64,230.64h-39.5s-7.18-167.49-37.38-197.69C1122,447.32,921.57,436.34,809,38.21Z"/><path class="cls-6" d="M1118.19,642.27l27.47-2.44s3.81-71.7-26.4-123.87c0,0,41.19-104.33-52.16-131.79,0,0-27.46-32.95-123.56-35.69,0,0,57.66,148.26,145.52,170.23C1089.06,518.71,1139.08,579.11,1118.19,642.27Z"/><path class="cls-7" d="M1198.89,164.51s186.71,200.44,0,197.69c0,0,22,170.24,0,288.3h-30.2s41.18-129,0-288.3C1168.69,362.2,1045.13,345.73,1198.89,164.51Z"/><path class="cls-6" d="M1165.94,647.76,1229.09,483S1152.21,354,1457,183.73c0,0-156.51,400.88-203.19,299.28C1253.8,483,1209.87,620.3,1165.94,647.76Z"/><path class="cls-7" d="M1220.86,647.76l30.2-2.75s5.49-162,76.88-263.59c0,0,54.91,13.73,280.06-153.76,0,0-260.84-13.72-315.76,142.78Z"/></g><rect class="cls-8" x="523" y="394" width="41" height="316" rx="4" ry="4"/><rect class="cls-9" x="120" y="377" width="422" height="513" rx="12" ry="12"/><rect class="cls-9" x="551" y="377" width="422" height="513" rx="12" ry="12"/><rect class="cls-8" x="100" y="527" width="75" height="180" rx="12" ry="12"/><rect class="cls-8" x="918" y="527" width="75" height="180" rx="12" ry="12"/><rect class="cls-8" x="133" y="705" width="822" height="184" rx="12" ry="12"/><rect class="cls-9" x="47.5" y="524.5" width="100" height="389" rx="12" ry="12"/><rect class="cls-9" x="946" y="524" width="100" height="389" rx="12" ry="12"/><rect class="cls-9" x="176" y="741" width="739" height="138" rx="12" ry="12"/><rect class="cls-10" x="145" y="643" width="396" height="84" rx="12" ry="12"/><rect class="cls-10" x="546" y="643" width="396" height="84" rx="12" ry="12"/></g><g id="bord"><polygon class="cls-11" points="214 886 268 886 187 1024 172 1024 214 886"/><polygon class="cls-11" points="708 887 753 885 802 1019 788 1019 708 887"/><polygon class="cls-11" points="444 887 484 886 465 991 451 991 444 887"/><ellipse class="cls-12" cx="487" cy="852" rx="323" ry="26"/><path class="cls-13" d="M164,854v32s263.49,32,646,0V854S449.87,856,164,854Z"/></g></svg>
